<svg xmlns="http://www.w3.org/2000/svg" version="1.1" xmlns:xlink="http://www.w3.org/1999/xlink" xmlns:svgjs="http://svgjs.dev/svgjs" width="1500" height="1500" viewBox="0 0 1500 1500"><rect width="1500" height="1500" fill="#ffffff"></rect><g transform="matrix(0.6666666666666666,0,0,0.6666666666666666,249.39393939393938,438.5856950067477)"><svg viewBox="0 0 396 247" data-background-color="#ffffff" preserveAspectRatio="xMidYMid meet" height="935" width="1500" xmlns="http://www.w3.org/2000/svg" xmlns:xlink="http://www.w3.org/1999/xlink"><g id="tight-bounds" transform="matrix(1,0,0,1,0.2400000000000091,-0.09999999999999432)"><svg viewBox="0 0 395.52 247.2" height="247.2" width="395.52"><g><svg></svg></g><g><svg viewBox="0 0 395.52 247.2" height="247.2" width="395.52"><mask id="f95b1936-0cb2-4859-9148-d6ba52d8859c"><rect width="640" height="400" fill="white"></rect><g transform="matrix(1,0,0,1,39.55199999999999,102.5812848031924)"><svg viewBox="0 0 316.416 42.037430393615196" height="42.037430393615196" width="316.416"><g><svg viewBox="0 0 316.416 42.037430393615196" height="42.037430393615196" width="316.416"><g><svg viewBox="0 0 316.416 42.037430393615196" height="42.037430393615196" width="316.416"><g><svg viewBox="0 0 316.416 42.037430393615196" height="42.037430393615196" width="316.416"><g id="SvgjsG2061"><svg viewBox="0 0 316.416 42.037430393615196" height="42.037430393615196" width="316.416" id="SvgjsSvg2060"><g><svg viewBox="0 0 316.416 24.46816785431512" height="24.46816785431512" width="316.416"><g transform="matrix(1,0,0,1,0,0)"><svg width="316.416" viewBox="-2 -40.15 569.29 44.949999999999996" height="24.46816785431512" data-palette-color="#556970"><path d="M2-15.3L2-15.3Q2-18.75 3.03-22.05 4.05-25.35 6.05-27.9 8.05-30.45 11.08-32.02 14.1-33.6 18.05-33.6L18.05-33.6Q21.7-33.6 24.25-32.27 26.8-30.95 28.43-28.7 30.05-26.45 30.8-23.5 31.55-20.55 31.55-17.3L31.55-17.3Q31.55-13.85 30.58-10.6 29.6-7.35 27.6-4.83 25.6-2.3 22.65-0.75 19.7 0.8 15.7 0.8L15.7 0.8Q12.05 0.8 9.45-0.5 6.85-1.8 5.2-4 3.55-6.2 2.78-9.13 2-12.05 2-15.3ZM17.2-2.1L17.2-2.1Q20.2-2.1 22.15-3.38 24.1-4.65 25.23-6.6 26.35-8.55 26.8-10.88 27.25-13.2 27.25-15.35L27.25-15.35Q27.25-18.15 26.65-20.9 26.05-23.65 24.75-25.83 23.45-28 21.43-29.33 19.4-30.65 16.55-30.65L16.55-30.65Q13.55-30.65 11.58-29.38 9.6-28.1 8.43-26.13 7.25-24.15 6.78-21.78 6.3-19.4 6.3-17.25L6.3-17.25Q6.3-14.45 6.95-11.73 7.6-9 8.95-6.88 10.3-4.75 12.35-3.43 14.4-2.1 17.2-2.1ZM35.2-1L35.2-1Q35.2-1.25 35.52-1.48 35.85-1.7 36.3-1.9 36.75-2.1 37.2-2.27 37.65-2.45 37.85-2.55L37.85-2.55 37.85-19Q36.85-19.2 35.8-19.65 34.75-20.1 34.75-20.45L34.75-20.45Q34.75-20.95 35.35-21.48 35.95-22 36.82-22.4 37.7-22.8 38.7-23.08 39.7-23.35 40.45-23.35L40.45-23.35Q41.55-23.35 41.65-22.85L41.65-22.85 41.65-20.3Q43.4-21.85 45.42-22.85 47.45-23.85 50-23.85L50-23.85Q51.75-23.85 53.07-23.38 54.4-22.9 55.4-21.6L55.4-21.6Q56.4-20.3 56.67-19.03 56.95-17.75 56.95-16.45L56.95-16.45 56.95-3.4Q56.95-2.8 57.42-2.58 57.9-2.35 58.45-2.2 59-2.05 59.45-1.85 59.9-1.65 59.9-1.1L59.9-1.1Q59.9-0.85 59.5-0.43 59.1 0 58.2 0L58.2 0 50.95 0Q50.35 0 50.17-0.35 50-0.7 50-1L50-1Q50-1.25 50.32-1.48 50.65-1.7 51.07-1.9 51.5-2.1 51.92-2.27 52.35-2.45 52.55-2.55L52.55-2.55 52.55-14.55Q52.55-18.05 51.27-19.5 50-20.95 48.05-20.95L48.05-20.95Q46.55-20.95 44.92-20.38 43.3-19.8 42.15-18.75L42.15-18.75 42.15-3.7Q42.15-2.95 42.67-2.68 43.2-2.4 43.85-2.25 44.5-2.1 45.02-1.9 45.55-1.7 45.55-1.1L45.55-1.1Q45.55 0 43.85 0L43.85 0 36.15 0Q35.55 0 35.37-0.35 35.2-0.7 35.2-1ZM62.3-1L62.3-1Q62.3-1.25 62.62-1.48 62.95-1.7 63.4-1.9 63.85-2.1 64.3-2.27 64.75-2.45 64.95-2.55L64.95-2.55 64.95-32.95Q63.85-33.1 63.07-33.4 62.3-33.7 62.3-34L62.3-34Q62.3-34.7 62.9-35.1 63.5-35.5 64.37-35.75 65.25-36 66.22-36.08 67.2-36.15 68-36.15L68-36.15Q68.95-36.15 69.15-35.7L69.15-35.7 69.15-3.7Q69.15-2.95 69.7-2.68 70.25-2.4 70.92-2.27 71.6-2.15 72.15-1.95 72.7-1.75 72.7-1.1L72.7-1.1Q72.7 0 71 0L71 0 63.25 0Q62.65 0 62.47-0.35 62.3-0.7 62.3-1ZM75.64-1L75.64-1Q75.64-1.25 76.04-1.5 76.44-1.75 76.99-1.98 77.54-2.2 78.07-2.38 78.59-2.55 78.89-2.7L78.89-2.7 78.89-19Q78.39-19.1 77.82-19.28 77.24-19.45 76.77-19.65 76.29-19.85 75.97-20.05 75.64-20.25 75.64-20.45L75.64-20.45Q75.64-20.95 76.24-21.48 76.84-22 77.74-22.4 78.64-22.8 79.64-23.08 80.64-23.35 81.44-23.35L81.44-23.35Q81.89-23.35 82.44-23.25 82.99-23.15 83.09-22.85L83.09-22.85 83.09-3.7Q83.09-2.95 83.64-2.68 84.19-2.4 84.84-2.25 85.49-2.1 86.04-1.9 86.59-1.7 86.59-1.1L86.59-1.1Q86.59 0 84.89 0L84.89 0 76.59 0Q75.99 0 75.82-0.35 75.64-0.7 75.64-1ZM80.99-27.7L80.99-27.7Q79.89-27.7 79.14-27.98 78.39-28.25 77.99-28.6 77.59-28.95 77.42-29.3 77.24-29.65 77.24-29.8L77.24-29.8Q77.24-30.2 77.49-30.75 77.74-31.3 78.14-31.78 78.54-32.25 79.04-32.58 79.54-32.9 80.04-32.9L80.04-32.9Q82.24-32.9 83.09-32.1 83.94-31.3 83.94-30.6L83.94-30.6Q83.94-30.15 83.67-29.65 83.39-29.15 82.97-28.73 82.54-28.3 82.02-28 81.49-27.7 80.99-27.7ZM89.64-1L89.64-1Q89.64-1.25 89.97-1.48 90.29-1.7 90.74-1.9 91.19-2.1 91.64-2.27 92.09-2.45 92.29-2.55L92.29-2.55 92.29-19Q91.29-19.2 90.24-19.65 89.19-20.1 89.19-20.45L89.19-20.45Q89.19-20.95 89.79-21.48 90.39-22 91.27-22.4 92.14-22.8 93.14-23.08 94.14-23.35 94.89-23.35L94.89-23.35Q95.99-23.35 96.09-22.85L96.09-22.85 96.09-20.3Q97.84-21.85 99.87-22.85 101.89-23.85 104.44-23.85L104.44-23.85Q106.19-23.85 107.52-23.38 108.84-22.9 109.84-21.6L109.84-21.6Q110.84-20.3 111.12-19.03 111.39-17.75 111.39-16.45L111.39-16.45 111.39-3.4Q111.39-2.8 111.87-2.58 112.34-2.35 112.89-2.2 113.44-2.05 113.89-1.85 114.34-1.65 114.34-1.1L114.34-1.1Q114.34-0.85 113.94-0.43 113.54 0 112.64 0L112.64 0 105.39 0Q104.79 0 104.62-0.35 104.44-0.7 104.44-1L104.44-1Q104.44-1.25 104.77-1.48 105.09-1.7 105.52-1.9 105.94-2.1 106.37-2.27 106.79-2.45 106.99-2.55L106.99-2.55 106.99-14.55Q106.99-18.05 105.72-19.5 104.44-20.95 102.49-20.95L102.49-20.95Q100.99-20.95 99.37-20.38 97.74-19.8 96.59-18.75L96.59-18.75 96.59-3.7Q96.59-2.95 97.12-2.68 97.64-2.4 98.29-2.25 98.94-2.1 99.47-1.9 99.99-1.7 99.99-1.1L99.99-1.1Q99.99 0 98.29 0L98.29 0 90.59 0Q89.99 0 89.82-0.35 89.64-0.7 89.64-1ZM117.04-10.1L117.04-10.1Q117.04-13 117.84-15.5 118.64-18 120.11-19.85 121.59-21.7 123.71-22.78 125.84-23.85 128.44-23.85L128.44-23.85Q131.29-23.85 132.99-22.73 134.69-21.6 135.61-19.85 136.54-18.1 136.84-16.03 137.14-13.95 137.19-12L137.19-12Q137.19-11.25 136.54-11.15 135.89-11.05 135.19-11.05L135.19-11.05 121.64-11.05Q121.74-9.35 122.16-7.75 122.59-6.15 123.41-4.9 124.24-3.65 125.51-2.88 126.79-2.1 128.49-2.1L128.49-2.1Q130.34-2.1 131.49-2.38 132.64-2.65 133.39-2.98 134.14-3.3 134.66-3.58 135.19-3.85 135.79-3.85L135.79-3.85Q136.49-3.85 136.49-3.3L136.49-3.3Q136.49-2.65 135.74-1.93 134.99-1.2 133.71-0.58 132.44 0.05 130.76 0.43 129.09 0.8 127.24 0.8L127.24 0.8Q124.59 0.8 122.66-0.1 120.74-1 119.49-2.5 118.24-4 117.64-5.98 117.04-7.95 117.04-10.1ZM121.64-13.3L132.24-13.65Q132.19-15.2 131.99-16.57 131.79-17.95 131.24-18.95 130.69-19.95 129.64-20.55 128.59-21.15 126.89-21.15L126.89-21.15Q124.39-21.15 123.11-18.93 121.84-16.7 121.64-13.3L121.64-13.3ZM154.38-1.2L154.38-1.2Q154.38-1.5 154.78-1.73 155.18-1.95 155.71-2.13 156.23-2.3 156.78-2.45 157.33-2.6 157.58-2.75L157.58-2.75 157.58-29.3Q157.53-29.7 157.03-29.95 156.53-30.2 155.93-30.4 155.33-30.6 154.86-30.83 154.38-31.05 154.38-31.4L154.38-31.4Q154.38-31.7 154.56-32.3 154.73-32.9 155.33-32.9L155.33-32.9 159.33-32.9Q159.88-32.9 160.21-32.6 160.53-32.3 160.93-31.75L160.93-31.75 176.93-10.3 179.43-5.2 179.43-30.15Q179.18-30.3 178.63-30.45 178.08-30.6 177.56-30.78 177.03-30.95 176.63-31.18 176.23-31.4 176.23-31.7L176.23-31.7Q176.23-32 176.41-32.45 176.58-32.9 177.18-32.9L177.18-32.9 184.48-32.9Q185.38-32.9 185.78-32.48 186.18-32.05 186.18-31.8L186.18-31.8Q186.18-31.15 185.63-30.95 185.08-30.75 184.41-30.63 183.73-30.5 183.18-30.23 182.63-29.95 182.63-29.2L182.63-29.2 182.63-1.3Q182.63-0.8 182.31-0.55 181.98-0.3 181.51-0.18 181.03-0.05 180.48-0.03 179.93 0 179.48 0L179.48 0 163.83-20.35 160.68-26 160.68-3.7Q160.68-2.95 161.23-2.68 161.78-2.4 162.46-2.27 163.13-2.15 163.68-1.95 164.23-1.75 164.23-1.1L164.23-1.1Q164.23-0.85 163.83-0.43 163.43 0 162.53 0L162.53 0 155.33 0Q154.73 0 154.56-0.45 154.38-0.9 154.38-1.2ZM188.73-10.1L188.73-10.1Q188.73-13 189.53-15.5 190.33-18 191.81-19.85 193.28-21.7 195.41-22.78 197.53-23.85 200.13-23.85L200.13-23.85Q202.98-23.85 204.68-22.73 206.38-21.6 207.31-19.85 208.23-18.1 208.53-16.03 208.83-13.95 208.88-12L208.88-12Q208.88-11.25 208.23-11.15 207.58-11.05 206.88-11.05L206.88-11.05 193.33-11.05Q193.43-9.35 193.85-7.75 194.28-6.15 195.1-4.9 195.93-3.65 197.2-2.88 198.48-2.1 200.18-2.1L200.18-2.1Q202.03-2.1 203.18-2.38 204.33-2.65 205.08-2.98 205.83-3.3 206.35-3.58 206.88-3.85 207.48-3.85L207.48-3.85Q208.18-3.85 208.18-3.3L208.18-3.3Q208.18-2.65 207.43-1.93 206.68-1.2 205.41-0.58 204.13 0.05 202.45 0.43 200.78 0.8 198.93 0.8L198.93 0.8Q196.28 0.8 194.35-0.1 192.43-1 191.18-2.5 189.93-4 189.33-5.98 188.73-7.95 188.73-10.1ZM193.33-13.3L203.93-13.65Q203.88-15.2 203.68-16.57 203.48-17.95 202.93-18.95 202.38-19.95 201.33-20.55 200.28-21.15 198.58-21.15L198.58-21.15Q196.08-21.15 194.81-18.93 193.53-16.7 193.33-13.3L193.33-13.3ZM215.38-1.45L215.38-1.45Q214.48-2.8 214.28-4.08 214.08-5.35 214.08-6.6L214.08-6.6 213.98-20.25Q213.03-20.4 212.38-20.88 211.73-21.35 211.73-21.7L211.73-21.7Q211.73-22.45 213.13-22.83 214.53-23.2 217.18-23.2L217.18-23.2Q217.73-23.2 218-23.13 218.28-23.05 218.38-22.7L218.38-22.7 218.38-9Q218.38-6.55 218.68-5.13 218.98-3.7 219.5-3 220.03-2.3 220.8-2.13 221.58-1.95 222.53-1.95L222.53-1.95Q223.93-1.95 225.38-2.53 226.83-3.1 228.03-4.05L228.03-4.05 228.03-20.2Q226.88-20.35 225.88-20.73 224.88-21.1 224.88-21.65L224.88-21.65Q224.88-22.4 226.48-22.78 228.08-23.15 231.13-23.15L231.13-23.15Q231.53-23.15 231.83-23.05 232.13-22.95 232.23-22.55L232.23-22.55 232.23-2.15Q232.68-2.15 232.85-2.33 233.03-2.5 233.88-2.5L233.88-2.5Q234.93-2.5 234.93-1.75L234.93-1.75Q234.93-1.55 234.63-1.13 234.33-0.7 233.75-0.28 233.18 0.15 232.3 0.48 231.43 0.8 230.28 0.8L230.28 0.8Q229.38 0.8 228.7 0.4 228.03 0 228.03-0.95L228.03-0.95 228.03-2.2Q226.53-0.9 224.88-0.05 223.23 0.8 220.93 0.8L220.93 0.8Q219.43 0.8 217.83 0.33 216.23-0.15 215.38-1.45ZM237.93-1L237.93-1Q237.93-1.25 238.25-1.48 238.58-1.7 239.03-1.9 239.47-2.1 239.93-2.27 240.38-2.45 240.58-2.55L240.58-2.55 240.58-19Q239.58-19.2 238.53-19.65 237.47-20.1 237.47-20.45L237.47-20.45Q237.47-20.95 238.08-21.48 238.68-22 239.55-22.4 240.43-22.8 241.43-23.08 242.43-23.35 243.18-23.35L243.18-23.35Q243.58-23.35 243.93-23.25 244.28-23.15 244.38-22.85L244.38-22.85 244.38-18.2Q245.43-20.55 247.1-22.2 248.78-23.85 251.03-23.85L251.03-23.85Q251.47-23.85 252.15-23.7 252.83-23.55 253.5-23.13 254.18-22.7 254.65-21.95 255.13-21.2 255.13-20.05L255.13-20.05Q255.13-19.6 254.83-19.18 254.53-18.75 254.08-18.43 253.63-18.1 253.1-17.88 252.58-17.65 252.08-17.6L252.08-17.6Q251.68-17.6 251.4-17.78 251.13-17.95 251.03-18.65L251.03-18.65Q250.78-19.8 250.3-20.15 249.83-20.5 248.88-20.5L248.88-20.5Q248.18-20.5 247.47-19.8 246.78-19.1 246.2-18.07 245.63-17.05 245.25-15.93 244.88-14.8 244.88-13.95L244.88-13.95 244.88-3.6Q244.88-2.9 245.63-2.68 246.38-2.45 247.25-2.33 248.13-2.2 248.85-1.98 249.58-1.75 249.58-1.1L249.58-1.1Q249.58 0 247.88 0L247.88 0 238.88 0Q238.28 0 238.1-0.35 237.93-0.7 237.93-1ZM257.87-10.5L257.87-10.5Q257.87-13.05 258.62-15.45 259.37-17.85 260.87-19.73 262.37-21.6 264.62-22.73 266.87-23.85 269.82-23.85L269.82-23.85Q272.52-23.85 274.45-22.8 276.37-21.75 277.57-20.08 278.77-18.4 279.32-16.32 279.87-14.25 279.87-12.2L279.87-12.2Q279.87-11 279.67-9.63 279.47-8.25 279.02-6.9 278.57-5.55 277.85-4.33 277.12-3.1 276.02-2.15L276.02-2.15Q274.42-0.7 272.2 0.05 269.97 0.8 267.72 0.8L267.72 0.8Q265.67 0.8 263.87 0.1 262.07-0.6 260.75-2.02 259.42-3.45 258.65-5.55 257.87-7.65 257.87-10.5ZM262.42-12.2L262.42-12.2Q262.42-10.4 262.8-8.53 263.17-6.65 264.02-5.13 264.87-3.6 266.35-2.6 267.82-1.6 269.97-1.6L269.97-1.6Q271.47-1.6 272.5-2.35 273.52-3.1 274.17-4.35 274.82-5.6 275.1-7.2 275.37-8.8 275.37-10.5L275.37-10.5Q275.37-12.35 275-14.3 274.62-16.25 273.75-17.82 272.87-19.4 271.45-20.43 270.02-21.45 267.87-21.45L267.87-21.45Q266.37-21.45 265.32-20.65 264.27-19.85 263.65-18.53 263.02-17.2 262.72-15.55 262.42-13.9 262.42-12.2ZM284.22-1L284.22-1Q284.22-1.25 284.55-1.48 284.87-1.7 285.32-1.9 285.77-2.1 286.22-2.27 286.67-2.45 286.87-2.55L286.87-2.55 286.87-19Q285.87-19.2 284.82-19.65 283.77-20.1 283.77-20.45L283.77-20.45Q283.77-20.95 284.37-21.48 284.97-22 285.84-22.4 286.72-22.8 287.72-23.08 288.72-23.35 289.47-23.35L289.47-23.35Q290.57-23.35 290.67-22.85L290.67-22.85 290.67-20.3Q292.42-21.85 294.44-22.85 296.47-23.85 299.02-23.85L299.02-23.85Q300.77-23.85 302.09-23.38 303.42-22.9 304.42-21.6L304.42-21.6Q305.42-20.3 305.69-19.03 305.97-17.75 305.97-16.45L305.97-16.45 305.97-3.4Q305.97-2.8 306.44-2.58 306.92-2.35 307.47-2.2 308.02-2.05 308.47-1.85 308.92-1.65 308.92-1.1L308.92-1.1Q308.92-0.85 308.52-0.43 308.12 0 307.22 0L307.22 0 299.97 0Q299.37 0 299.19-0.35 299.02-0.7 299.02-1L299.02-1Q299.02-1.25 299.34-1.48 299.67-1.7 300.09-1.9 300.52-2.1 300.94-2.27 301.37-2.45 301.57-2.55L301.57-2.55 301.57-14.55Q301.57-18.05 300.3-19.5 299.02-20.95 297.07-20.95L297.07-20.95Q295.57-20.95 293.94-20.38 292.32-19.8 291.17-18.75L291.17-18.75 291.17-3.7Q291.17-2.95 291.69-2.68 292.22-2.4 292.87-2.25 293.52-2.1 294.05-1.9 294.57-1.7 294.57-1.1L294.57-1.1Q294.57 0 292.87 0L292.87 0 285.17 0Q284.57 0 284.39-0.35 284.22-0.7 284.22-1ZM325.36-1.2L325.36-1.2Q325.36-1.5 325.76-1.73 326.16-1.95 326.69-2.13 327.21-2.3 327.76-2.45 328.31-2.6 328.56-2.75L328.56-2.75 328.56-30.15Q328.31-30.3 327.76-30.43 327.21-30.55 326.69-30.75 326.16-30.95 325.76-31.18 325.36-31.4 325.36-31.7L325.36-31.7Q325.36-32 325.54-32.45 325.71-32.9 326.31-32.9L326.31-32.9 342.41-32.9Q343.26-32.9 344.04-32.88 344.81-32.85 345.41-32.7 346.01-32.55 346.39-32.25 346.76-31.95 346.76-31.4L346.76-31.4Q346.76-30.8 346.61-29.63 346.46-28.45 346.24-27.3 346.01-26.15 345.69-25.28 345.36-24.4 344.96-24.4L344.96-24.4Q344.26-24.4 343.91-25.38 343.56-26.35 343.21-27.53 342.86-28.7 342.31-29.68 341.76-30.65 340.66-30.65L340.66-30.65 333.01-30.65 333.01-17.85 342.56-18.2Q343.41-18.15 343.41-17.6L343.41-17.6Q343.41-17.3 343.26-16.82 343.11-16.35 342.86-15.9 342.61-15.45 342.31-15.1 342.01-14.75 341.66-14.7L341.66-14.7 333.01-15.15 333.01-2.85Q333.61-2.7 334.59-2.63 335.56-2.55 336.54-2.4 337.51-2.25 338.21-1.98 338.91-1.7 338.91-1.2L338.91-1.2Q338.91-0.95 338.69-0.48 338.46 0 337.91 0L337.91 0 326.31 0Q325.71 0 325.54-0.45 325.36-0.9 325.36-1.2ZM349.86-1L349.86-1Q349.86-1.25 350.19-1.48 350.51-1.7 350.96-1.9 351.41-2.1 351.86-2.27 352.31-2.45 352.51-2.55L352.51-2.55 352.51-19Q351.51-19.2 350.46-19.65 349.41-20.1 349.41-20.45L349.41-20.45Q349.41-20.95 350.01-21.48 350.61-22 351.49-22.4 352.36-22.8 353.36-23.08 354.36-23.35 355.11-23.35L355.11-23.35Q355.51-23.35 355.86-23.25 356.21-23.15 356.31-22.85L356.31-22.85 356.31-18.2Q357.36-20.55 359.04-22.2 360.71-23.85 362.96-23.85L362.96-23.85Q363.41-23.85 364.09-23.7 364.76-23.55 365.44-23.13 366.11-22.7 366.59-21.95 367.06-21.2 367.06-20.05L367.06-20.05Q367.06-19.6 366.76-19.18 366.46-18.75 366.01-18.43 365.56-18.1 365.04-17.88 364.51-17.65 364.01-17.6L364.01-17.6Q363.61-17.6 363.34-17.78 363.06-17.95 362.96-18.65L362.96-18.65Q362.71-19.8 362.24-20.15 361.76-20.5 360.81-20.5L360.81-20.5Q360.11-20.5 359.41-19.8 358.71-19.1 358.14-18.07 357.56-17.05 357.19-15.93 356.81-14.8 356.81-13.95L356.81-13.95 356.81-3.6Q356.81-2.9 357.56-2.68 358.31-2.45 359.19-2.33 360.06-2.2 360.79-1.98 361.51-1.75 361.51-1.1L361.51-1.1Q361.51 0 359.81 0L359.81 0 350.81 0Q350.21 0 350.04-0.35 349.86-0.7 349.86-1ZM369.56-5.05L369.56-5.05Q369.56-7.3 370.71-8.85 371.86-10.4 373.76-11.43 375.66-12.45 378.08-13 380.51-13.55 383.06-13.75L383.06-13.75 383.06-14.85Q383.06-16.05 382.91-17.25 382.76-18.45 382.21-19.45L382.21-19.45Q381.61-20.45 380.58-20.73 379.56-21 378.56-21L378.56-21Q377.21-21 376.46-20.93 375.71-20.85 375.33-20.65 374.96-20.45 374.88-20.08 374.81-19.7 374.81-19.05L374.81-19.05Q374.81-18.35 374.98-18.18 375.16-18 375.16-17.75L375.16-17.75Q375.16-17.35 374.83-16.93 374.51-16.5 374.03-16.18 373.56-15.85 372.98-15.65 372.41-15.45 371.91-15.45L371.91-15.45Q370.76-15.45 370.51-16.13 370.26-16.8 370.26-17.3L370.26-17.3Q370.26-18.5 371.43-19.65 372.61-20.8 374.28-21.75 375.96-22.7 377.76-23.28 379.56-23.85 380.81-23.85L380.81-23.85Q382.91-23.85 384.23-23.2 385.56-22.55 386.26-21.5 386.96-20.45 387.21-19.13 387.46-17.8 387.46-16.45L387.46-16.45 387.46-2.15Q388.01-2.15 388.61-2.38 389.21-2.6 389.81-2.6L389.81-2.6Q390.36-2.6 390.53-2.4 390.71-2.2 390.71-1.85L390.71-1.85Q390.71-1.65 390.31-1.23 389.91-0.8 389.18-0.35 388.46 0.1 387.51 0.45 386.56 0.8 385.41 0.8L385.41 0.8Q384.46 0.8 383.76 0.4 383.06 0 383.06-0.95L383.06-0.95 383.06-2.85Q381.76-1.25 380.21-0.23 378.66 0.8 376.46 0.8L376.46 0.8Q374.61 0.8 373.28 0.25 371.96-0.3 371.13-1.18 370.31-2.05 369.93-3.08 369.56-4.1 369.56-5.05ZM374.26-6.7L374.26-6.7Q374.26-4.7 375.26-3.35 376.26-2 378.96-2L378.96-2Q379.96-2 381.08-2.75 382.21-3.5 383.06-4.7L383.06-4.7 383.06-11.45Q381.66-11.4 380.11-11.18 378.56-10.95 377.26-10.45 375.96-9.95 375.11-9.05 374.26-8.15 374.26-6.7ZM393.56-1L393.56-1Q393.56-1.25 393.88-1.48 394.21-1.7 394.66-1.9 395.11-2.1 395.56-2.27 396.01-2.45 396.21-2.55L396.21-2.55 396.21-19Q395.21-19.2 394.16-19.65 393.11-20.1 393.11-20.45L393.11-20.45Q393.11-20.95 393.71-21.48 394.31-22 395.18-22.4 396.06-22.8 397.06-23.08 398.06-23.35 398.81-23.35L398.81-23.35Q399.91-23.35 400.01-22.85L400.01-22.85 400.01-20.3Q401.81-21.75 403.88-22.8 405.96-23.85 408.41-23.85L408.41-23.85Q410.46-23.85 412.03-23.13 413.61-22.4 414.56-20.3L414.56-20.3Q416.31-21.75 418.36-22.8 420.41-23.85 422.66-23.85L422.66-23.85Q424.26-23.85 425.71-23.38 427.16-22.9 428.06-21.6L428.06-21.6Q428.96-20.3 429.16-19 429.36-17.7 429.36-16.45L429.36-16.45 429.36-3.5Q429.36-2.85 429.88-2.63 430.41-2.4 431.03-2.25 431.66-2.1 432.18-1.9 432.71-1.7 432.71-1.1L432.71-1.1Q432.71-0.85 432.31-0.43 431.91 0 431.01 0L431.01 0 423.51 0Q422.91 0 422.73-0.35 422.56-0.7 422.56-1L422.56-1Q422.56-1.25 422.88-1.48 423.21-1.7 423.63-1.9 424.06-2.1 424.48-2.27 424.91-2.45 425.11-2.55L425.11-2.55 425.06-14.45Q425.01-17.95 423.83-19.4 422.66-20.85 420.71-20.85L420.71-20.85Q419.41-20.85 417.93-20.4 416.46-19.95 415.61-18.9L415.61-18.9 415.11-18.45Q415.26-17.4 415.26-16.45L415.26-16.45 415.26-3.7Q415.26-2.95 415.78-2.68 416.31-2.4 416.93-2.25 417.56-2.1 418.08-1.9 418.61-1.7 418.61-1.1L418.61-1.1Q418.61-0.85 418.21-0.43 417.81 0 416.91 0L416.91 0 409.36 0Q408.76 0 408.58-0.35 408.41-0.7 408.41-1L408.41-1Q408.41-1.25 408.73-1.48 409.06-1.7 409.48-1.9 409.91-2.1 410.33-2.27 410.76-2.45 410.96-2.55L410.96-2.55 410.96-14.45Q410.96-17.95 409.66-19.4 408.36-20.85 406.41-20.85L406.41-20.85Q404.91-20.85 403.31-20.25 401.71-19.65 400.56-18.5L400.56-18.5 400.51-3.7Q400.51-2.95 401.03-2.68 401.56-2.4 402.21-2.25 402.86-2.1 403.38-1.9 403.91-1.7 403.91-1.1L403.91-1.1Q403.91 0 402.21 0L402.21 0 394.51 0Q393.91 0 393.73-0.35 393.56-0.7 393.56-1ZM435-10.1L435-10.1Q435-13 435.8-15.5 436.6-18 438.08-19.85 439.55-21.7 441.68-22.78 443.8-23.85 446.4-23.85L446.4-23.85Q449.25-23.85 450.95-22.73 452.65-21.6 453.58-19.85 454.5-18.1 454.8-16.03 455.1-13.95 455.15-12L455.15-12Q455.15-11.25 454.5-11.15 453.85-11.05 453.15-11.05L453.15-11.05 439.6-11.05Q439.7-9.35 440.13-7.75 440.55-6.15 441.38-4.9 442.2-3.65 443.48-2.88 444.75-2.1 446.45-2.1L446.45-2.1Q448.3-2.1 449.45-2.38 450.6-2.65 451.35-2.98 452.1-3.3 452.63-3.58 453.15-3.85 453.75-3.85L453.75-3.85Q454.45-3.85 454.45-3.3L454.45-3.3Q454.45-2.65 453.7-1.93 452.95-1.2 451.68-0.58 450.4 0.05 448.73 0.43 447.05 0.8 445.2 0.8L445.2 0.8Q442.55 0.8 440.63-0.1 438.7-1 437.45-2.5 436.2-4 435.6-5.98 435-7.95 435-10.1ZM439.6-13.3L450.2-13.65Q450.15-15.2 449.95-16.57 449.75-17.95 449.2-18.95 448.65-19.95 447.6-20.55 446.55-21.15 444.85-21.15L444.85-21.15Q442.35-21.15 441.08-18.93 439.8-16.7 439.6-13.3L439.6-13.3ZM467.25 0.5L459.1-19.75 458.7-20.6Q457.75-20.7 457.08-21.05 456.4-21.4 456.4-22.3L456.4-22.3Q456.4-22.5 456.73-22.7 457.05-22.9 457.75-22.9L457.75-22.9 464.75-22.9Q465.35-22.9 465.63-22.5 465.9-22.1 465.9-21.75L465.9-21.75Q465.9-21.2 465.18-20.98 464.45-20.75 463.45-20.6L463.45-20.6 468.95-5.2 473-16.65 471.85-19.75 471.45-20.6Q470.5-20.7 470-21.05 469.5-21.4 469.5-22.3L469.5-22.3Q469.5-22.5 469.93-22.7 470.35-22.9 471.05-22.9L471.05-22.9 478-22.9Q478.55-22.9 478.83-22.5 479.1-22.1 479.1-21.75L479.1-21.75Q479.1-21.2 478.2-20.98 477.3-20.75 476.05-20.6L476.05-20.6 481.05-5.3 486.55-20.6Q486.05-20.7 485.38-20.78 484.7-20.85 484.08-20.98 483.45-21.1 483-21.3 482.55-21.5 482.55-21.75L482.55-21.75Q482.55-22.1 482.8-22.5 483.05-22.9 483.6-22.9L483.6-22.9 490.65-22.9Q491.35-22.9 491.7-22.7 492.05-22.5 492.05-22.3L492.05-22.3Q492.05-21.4 491.28-21.05 490.5-20.7 489.5-20.6L489.5-20.6 481.55 0.5 479.35 0.5 474.4-12.9 469.3 0.5 467.25 0.5ZM493.35-10.5L493.35-10.5Q493.35-13.05 494.1-15.45 494.85-17.85 496.35-19.73 497.85-21.6 500.1-22.73 502.35-23.85 505.3-23.85L505.3-23.85Q508-23.85 509.92-22.8 511.85-21.75 513.05-20.08 514.25-18.4 514.8-16.32 515.35-14.25 515.35-12.2L515.35-12.2Q515.35-11 515.15-9.63 514.95-8.25 514.5-6.9 514.05-5.55 513.32-4.33 512.6-3.1 511.5-2.15L511.5-2.15Q509.9-0.7 507.67 0.05 505.45 0.8 503.2 0.8L503.2 0.8Q501.15 0.8 499.35 0.1 497.55-0.6 496.22-2.02 494.9-3.45 494.13-5.55 493.35-7.65 493.35-10.5ZM497.9-12.2L497.9-12.2Q497.9-10.4 498.27-8.53 498.65-6.65 499.5-5.13 500.35-3.6 501.82-2.6 503.3-1.6 505.45-1.6L505.45-1.6Q506.95-1.6 507.97-2.35 509-3.1 509.65-4.35 510.3-5.6 510.57-7.2 510.85-8.8 510.85-10.5L510.85-10.5Q510.85-12.35 510.47-14.3 510.1-16.25 509.22-17.82 508.35-19.4 506.92-20.43 505.5-21.45 503.35-21.45L503.35-21.45Q501.85-21.45 500.8-20.65 499.75-19.85 499.13-18.53 498.5-17.2 498.2-15.55 497.9-13.9 497.9-12.2ZM519.45-1L519.45-1Q519.45-1.25 519.77-1.48 520.1-1.7 520.55-1.9 521-2.1 521.45-2.27 521.9-2.45 522.1-2.55L522.1-2.55 522.1-19Q521.1-19.2 520.05-19.65 519-20.1 519-20.45L519-20.45Q519-20.95 519.6-21.48 520.2-22 521.07-22.4 521.95-22.8 522.95-23.08 523.95-23.35 524.7-23.35L524.7-23.35Q525.1-23.35 525.45-23.25 525.8-23.15 525.9-22.85L525.9-22.85 525.9-18.2Q526.95-20.55 528.62-22.2 530.3-23.85 532.55-23.85L532.55-23.85Q533-23.85 533.67-23.7 534.35-23.55 535.02-23.13 535.7-22.7 536.17-21.95 536.65-21.2 536.65-20.05L536.65-20.05Q536.65-19.6 536.35-19.18 536.05-18.75 535.6-18.43 535.15-18.1 534.62-17.88 534.1-17.65 533.6-17.6L533.6-17.6Q533.2-17.6 532.92-17.78 532.65-17.95 532.55-18.65L532.55-18.65Q532.3-19.8 531.82-20.15 531.35-20.5 530.4-20.5L530.4-20.5Q529.7-20.5 529-19.8 528.3-19.1 527.72-18.07 527.15-17.05 526.77-15.93 526.4-14.8 526.4-13.95L526.4-13.95 526.4-3.6Q526.4-2.9 527.15-2.68 527.9-2.45 528.77-2.33 529.65-2.2 530.37-1.98 531.1-1.75 531.1-1.1L531.1-1.1Q531.1 0 529.4 0L529.4 0 520.4 0Q519.8 0 519.62-0.35 519.45-0.7 519.45-1ZM538.19-1L538.19-1Q538.19-1.25 538.52-1.48 538.84-1.7 539.29-1.9 539.74-2.1 540.19-2.27 540.64-2.45 540.84-2.55L540.84-2.55 540.84-32.95Q539.74-33.1 539.04-33.4 538.34-33.7 538.34-34L538.34-34Q538.34-34.7 538.92-35.1 539.49-35.5 540.37-35.75 541.24-36 542.22-36.08 543.19-36.15 543.94-36.15L543.94-36.15Q544.34-36.15 544.67-36.1 544.99-36.05 545.09-35.7L545.09-35.7 545.09-11.1 553.54-20.6Q553.09-20.7 552.54-20.78 551.99-20.85 551.54-21 551.09-21.15 550.77-21.35 550.44-21.55 550.44-21.8L550.44-21.8Q550.44-22.1 550.72-22.5 550.99-22.9 551.54-22.9L551.54-22.9 559.09-22.9Q559.94-22.9 560.29-22.73 560.64-22.55 560.64-22.3L560.64-22.3Q560.64-21.45 559.84-21.08 559.04-20.7 558.09-20.6L558.09-20.6 551.74-14.4 559.24-3.15Q559.54-2.8 560.22-2.6 560.89-2.4 561.57-2.23 562.24-2.05 562.77-1.83 563.29-1.6 563.29-1.1L563.29-1.1Q563.29-0.85 562.89-0.43 562.49 0 561.59 0L561.59 0 553.49 0Q552.89 0 552.72-0.35 552.54-0.7 552.54-1L552.54-1Q552.54-1.45 553.14-1.65L553.14-1.65 554.64-2.3 548.84-11.6 545.09-7.85 545.09-3.7Q545.09-2.95 545.62-2.68 546.14-2.4 546.79-2.25 547.44-2.1 547.97-1.9 548.49-1.7 548.49-1.1L548.49-1.1Q548.49 0 546.79 0L546.79 0 539.14 0Q538.54 0 538.37-0.35 538.19-0.7 538.19-1Z" opacity="1" transform="matrix(1,0,0,1,0,0)" fill="black" class="wordmark-text-0" id="SvgjsPath2059" stroke-width="7" stroke="black" stroke-linejoin="round"></path></svg></g></svg></g><g transform="matrix(1,0,0,1,3.5,29.324505256639743)"><svg viewBox="0 0 309.416 12.712925136975453" height="12.712925136975453" width="309.416"><g transform="matrix(1,0,0,1,0,0)"><svg width="309.416" viewBox="-1.5499999999999998 -41.35 1381.02 57.650000000000006" height="12.712925136975453" data-palette-color="#556970"><path d="M18.23 0.6Q11 0.6 6.73-4.45 2.45-9.5 2.45-17.23 2.45-24.95 7.3-30.33 12.15-35.7 19.8-35.7L19.8-35.7Q24.75-35.7 28.3-33.25L28.3-33.25Q35.2-28.5 35.2-18.4L35.2-18.4Q35.2-10.15 30.33-4.78 25.45 0.6 18.23 0.6ZM29.55-17.05L29.55-17.05Q29.55-23.45 27.15-27.5L27.15-27.5Q24.5-32.05 18.25-32.05L18.25-32.05Q13.85-32.05 11.35-30.5L11.35-30.5Q9.9-28.7 9-25.43 8.1-22.15 8.1-18.07 8.1-14 9.15-10.73 10.2-7.45 12.93-5.2 15.65-2.95 19.63-2.95 23.6-2.95 26.2-4.6L26.2-4.6Q29.55-8.35 29.55-17.05ZM64.94-24.6L64.94-24.6Q68.54-24.6 70.52-22.3 72.49-20 72.49-15.7L72.49-15.7 72.49-8.5Q72.49-3.75 73.99-0.35L73.99-0.35 73.99 0 66.94 0 66.94-0.35Q67.79-2.85 67.79-7L67.79-7 67.79-14.65Q67.79-17.55 66.92-19.03 66.04-20.5 63.39-20.5 60.74-20.5 56.59-17.95L56.59-17.95 56.59-8.5Q56.59-3.65 58.04-0.35L58.04-0.35 58.04 0 51.04 0 51.04-0.35Q51.89-2.85 51.89-7L51.89-7 51.89-15.5Q51.89-17.65 51.02-19.73 50.14-21.8 48.99-22.5L48.99-22.5 48.94-23.1 55.49-24.65 55.79-24.15Q56.19-22.3 56.39-20.4L56.39-20.4Q58.24-21.85 59.27-22.55 60.29-23.25 61.89-23.93 63.49-24.6 64.94-24.6ZM95.98-0.6L95.98 0 89.53 0 89.53-0.6Q90.38-3.1 90.38-8.5L90.38-8.5 90.38-29.35Q90.38-33.35 88.08-35.55L88.08-35.55 88.08-36.15 94.93-37.35 95.23-36.85Q95.08-35.4 95.08-27.25L95.08-27.25 95.13-8.5Q95.13-3.1 95.98-0.6L95.98-0.6ZM112.47-6.95L112.47-6.95 112.47-16.65Q112.47-21.1 109.97-22.85L109.97-22.85 109.97-23.45 117.02-24.65 117.32-24.15Q117.17-22.7 117.17-20L117.17-20 117.17-8.2Q117.17-3.2 118.42-0.35L118.42-0.35 118.42 0 111.67 0 111.67-0.35Q112.47-2.7 112.47-6.95ZM116.67-35.4L116.67-35.4Q117.37-34.8 117.37-32.5L117.37-32.5Q117.37-31.95 117.32-31.5L117.32-31.5 116.92-31.15Q114.92-30.6 112.17-30.35L112.17-30.35 111.72-30.55Q110.97-31.85 110.97-34L110.97-34Q110.97-34.25 110.97-34.5L110.97-34.5 111.37-34.85Q113.77-35.65 115.97-35.65L115.97-35.65Q116.22-35.65 116.67-35.4ZM148.16-24.6L148.16-24.6Q151.76-24.6 153.74-22.3 155.71-20 155.71-15.7L155.71-15.7 155.71-8.5Q155.71-3.75 157.21-0.35L157.21-0.35 157.21 0 150.16 0 150.16-0.35Q151.01-2.85 151.01-7L151.01-7 151.01-14.65Q151.01-17.55 150.14-19.03 149.26-20.5 146.61-20.5 143.96-20.5 139.81-17.95L139.81-17.95 139.81-8.5Q139.81-3.65 141.26-0.35L141.26-0.35 141.26 0 134.26 0 134.26-0.35Q135.11-2.85 135.11-7L135.11-7 135.11-15.5Q135.11-17.65 134.24-19.73 133.36-21.8 132.21-22.5L132.21-22.5 132.16-23.1 138.71-24.65 139.01-24.15Q139.41-22.3 139.61-20.4L139.61-20.4Q141.46-21.85 142.49-22.55 143.51-23.25 145.11-23.93 146.71-24.6 148.16-24.6ZM182.15 0.55L182.15 0.55Q176.9 0.55 173.95-2.7 171-5.95 171-11.28 171-16.6 174.3-20.6 177.6-24.6 182.5-24.6L182.5-24.6Q191.45-24.6 191.45-13.55L191.45-13.55 189.6-11.75 176.3-11.75Q176.3-7.55 178.1-5.45 179.9-3.35 182.95-3.35L182.95-3.35Q184.15-3.35 186.35-4.08 188.55-4.8 190.25-5.8L190.25-5.8 191.5-3.9Q190.55-2.95 187.38-1.2 184.2 0.55 182.15 0.55ZM181.6-22.1L181.6-22.1Q179.5-22.1 178.35-21.15L178.35-21.15Q177.4-19.85 176.85-17.85 176.3-15.85 176.3-14.35L176.3-14.35 186.55-14.75Q186.55-22.1 181.6-22.1ZM211.9-23.95L216-35.8 220.4-36.7 220.4-36.4Q216.95-29.6 207.1-2.05L207.1-2.05Q206.75-1.05 206.05 1.15 205.35 3.35 204.95 4.55L204.95 4.55 200.05 5.9 200.05 5.6Q201.55 2.65 205.87-8.3 210.2-19.25 211.9-23.95L211.9-23.95ZM235.74-18.75L235.74-18.75Q235.74-11.55 239.21-7.55 242.69-3.55 247.84-3.55L247.84-3.55Q251.59-3.55 257.79-6.95L257.79-6.95 259.14-4.9Q256.84-3.2 255.56-2.45 254.29-1.7 252.69-0.9L252.69-0.9Q249.44 0.65 245.74 0.65L245.74 0.65Q239.24 0.65 234.66-4.2 230.09-9.05 230.09-17.2 230.09-25.35 235.39-30.48 240.69-35.6 248.54-35.6L248.54-35.6Q253.79-35.6 258.39-33.2L258.39-33.2Q257.79-30.05 256.29-27.9L256.29-27.9Q251.14-32.05 245.14-32.05L245.14-32.05Q243.34-32.05 241.64-31.7L241.64-31.7Q239.09-29.8 237.41-26.55 235.74-23.3 235.74-18.75ZM282.43 0.6Q277.18 0.6 274.13-2.73 271.08-6.05 271.08-11.43 271.08-16.8 274.63-20.7 278.18-24.6 283.55-24.6 288.93-24.6 291.85-21.35 294.78-18.1 294.78-12.65 294.78-7.2 291.23-3.3 287.68 0.6 282.43 0.6ZM289.48-11.4L289.48-11.4Q289.48-16.35 287.93-19.05 286.38-21.75 282.43-21.75L282.43-21.75Q279.88-21.75 278.43-20.65L278.43-20.65Q277.53-19.5 276.95-17.15 276.38-14.8 276.38-12.65L276.38-12.65Q276.38-2.2 283.78-2.2L283.78-2.2Q286.08-2.2 287.53-3.25L287.53-3.25Q288.48-4.4 288.98-6.8 289.48-9.2 289.48-11.4ZM324.27-24.6L324.27-24.6Q327.87-24.6 329.84-22.3 331.82-20 331.82-15.7L331.82-15.7 331.82-8.5Q331.82-3.75 333.32-0.35L333.32-0.35 333.32 0 326.27 0 326.27-0.35Q327.12-2.85 327.12-7L327.12-7 327.12-14.65Q327.12-17.55 326.24-19.03 325.37-20.5 322.72-20.5 320.07-20.5 315.92-17.95L315.92-17.95 315.92-8.5Q315.92-3.65 317.37-0.35L317.37-0.35 317.37 0 310.37 0 310.37-0.35Q311.22-2.85 311.22-7L311.22-7 311.22-15.5Q311.22-17.65 310.34-19.73 309.47-21.8 308.32-22.5L308.32-22.5 308.27-23.1 314.82-24.65 315.12-24.15Q315.52-22.3 315.72-20.4L315.72-20.4Q317.57-21.85 318.59-22.55 319.62-23.25 321.22-23.93 322.82-24.6 324.27-24.6ZM351.41-24.4L351.41-23.8Q351.41-22.35 353.41-16.25L353.41-16.25 357.16-4.7 361.36-17.35Q362.41-20.65 362.41-23.4L362.41-23.4 362.41-24 367.66-24 367.66-23.4Q366.31-22.15 365.06-18.55L365.06-18.55 359.41-2.2 358.71 0.35 354.06 0.55 353.21-2.3 347.26-18.75Q345.86-22.3 344.61-23.15L344.61-23.15 344.61-23.75 351.41-24.4ZM389.8 0.55L389.8 0.55Q384.55 0.55 381.6-2.7 378.65-5.95 378.65-11.28 378.65-16.6 381.95-20.6 385.25-24.6 390.15-24.6L390.15-24.6Q399.1-24.6 399.1-13.55L399.1-13.55 397.25-11.75 383.95-11.75Q383.95-7.55 385.75-5.45 387.55-3.35 390.6-3.35L390.6-3.35Q391.8-3.35 394-4.08 396.2-4.8 397.9-5.8L397.9-5.8 399.15-3.9Q398.2-2.95 395.02-1.2 391.85 0.55 389.8 0.55ZM389.25-22.1L389.25-22.1Q387.15-22.1 386-21.15L386-21.15Q385.05-19.85 384.5-17.85 383.95-15.85 383.95-14.35L383.95-14.35 394.2-14.75Q394.2-22.1 389.25-22.1ZM428.44-24.6L428.44-24.6Q432.04-24.6 434.02-22.3 435.99-20 435.99-15.7L435.99-15.7 435.99-8.5Q435.99-3.75 437.49-0.35L437.49-0.35 437.49 0 430.44 0 430.44-0.35Q431.29-2.85 431.29-7L431.29-7 431.29-14.65Q431.29-17.55 430.42-19.03 429.54-20.5 426.89-20.5 424.24-20.5 420.09-17.95L420.09-17.95 420.09-8.5Q420.09-3.65 421.54-0.35L421.54-0.35 421.54 0 414.54 0 414.54-0.35Q415.39-2.85 415.39-7L415.39-7 415.39-15.5Q415.39-17.65 414.52-19.73 413.64-21.8 412.49-22.5L412.49-22.5 412.44-23.1 418.99-24.65 419.29-24.15Q419.69-22.3 419.89-20.4L419.89-20.4Q421.74-21.85 422.77-22.55 423.79-23.25 425.39-23.93 426.99-24.6 428.44-24.6ZM459.18-21.2L459.18-5.6Q459.18-2.95 460.78-2.95L460.78-2.95Q462.13-2.95 465.33-4.55L465.33-4.55 466.38-2.8Q464.78-1.7 462.38-0.58 459.98 0.55 457.98 0.55 455.98 0.55 455.23-0.7 454.48-1.95 454.48-4.3L454.48-4.3 454.48-21.15 449.98-20.9 451.18-24.15Q452.08-24.05 454.38-23.95L454.38-23.95Q454.28-26.45 454.08-28.45L454.08-28.45 459.18-29.75 459.18-24Q461.88-24.1 466.53-24.6L466.53-24.6 465.13-20.7Q462.43-21.1 459.18-21.2L459.18-21.2ZM481.22-6.95L481.22-6.95 481.22-16.65Q481.22-21.1 478.72-22.85L478.72-22.85 478.72-23.45 485.77-24.65 486.07-24.15Q485.92-22.7 485.92-20L485.92-20 485.92-8.2Q485.92-3.2 487.17-0.35L487.17-0.35 487.17 0 480.42 0 480.42-0.35Q481.22-2.7 481.22-6.95ZM485.42-35.4L485.42-35.4Q486.12-34.8 486.12-32.5L486.12-32.5Q486.12-31.95 486.07-31.5L486.07-31.5 485.67-31.15Q483.67-30.6 480.92-30.35L480.92-30.35 480.47-30.55Q479.72-31.85 479.72-34L479.72-34Q479.72-34.25 479.72-34.5L479.72-34.5 480.12-34.85Q482.52-35.65 484.72-35.65L484.72-35.65Q484.97-35.65 485.42-35.4ZM512.01 0.6Q506.76 0.6 503.71-2.73 500.66-6.05 500.66-11.43 500.66-16.8 504.21-20.7 507.76-24.6 513.14-24.6 518.51-24.6 521.44-21.35 524.36-18.1 524.36-12.65 524.36-7.2 520.81-3.3 517.26 0.6 512.01 0.6ZM519.06-11.4L519.06-11.4Q519.06-16.35 517.51-19.05 515.96-21.75 512.01-21.75L512.01-21.75Q509.46-21.75 508.01-20.65L508.01-20.65Q507.11-19.5 506.54-17.15 505.96-14.8 505.96-12.65L505.96-12.65Q505.96-2.2 513.36-2.2L513.36-2.2Q515.66-2.2 517.11-3.25L517.11-3.25Q518.06-4.4 518.56-6.8 519.06-9.2 519.06-11.4ZM553.85-24.6L553.85-24.6Q557.45-24.6 559.43-22.3 561.4-20 561.4-15.7L561.4-15.7 561.4-8.5Q561.4-3.75 562.9-0.35L562.9-0.35 562.9 0 555.85 0 555.85-0.35Q556.7-2.85 556.7-7L556.7-7 556.7-14.65Q556.7-17.55 555.83-19.03 554.95-20.5 552.3-20.5 549.65-20.5 545.5-17.95L545.5-17.95 545.5-8.5Q545.5-3.65 546.95-0.35L546.95-0.35 546.95 0 539.95 0 539.95-0.35Q540.8-2.85 540.8-7L540.8-7 540.8-15.5Q540.8-17.65 539.93-19.73 539.05-21.8 537.9-22.5L537.9-22.5 537.85-23.1 544.4-24.65 544.7-24.15Q545.1-22.3 545.3-20.4L545.3-20.4Q547.15-21.85 548.18-22.55 549.2-23.25 550.8-23.93 552.4-24.6 553.85-24.6ZM590.99-5.3L590.99-10Q588.94-10.75 586.27-10.75 583.59-10.75 582.39-9.9L582.39-9.9Q581.64-8.75 581.64-6.83 581.64-4.9 582.69-3.8 583.74-2.7 585.32-2.7 586.89-2.7 588.54-3.53 590.19-4.35 590.99-5.3L590.99-5.3ZM591.79-2.8L591.79-2.8Q588.74 0.55 584.92 0.55 581.09 0.55 578.92-1.1 576.74-2.75 576.74-6.43 576.74-10.1 579.32-11.7 581.89-13.3 586.59-13.3L586.59-13.3 590.99-13.15 590.99-16Q590.99-18.65 589.69-20.3 588.39-21.95 585.74-21.95L585.74-21.95Q583.79-21.9 579.49-18.2L579.49-18.2Q578.04-20.05 577.44-23L577.44-23Q582.39-24.6 586.54-24.6 590.69-24.6 593.19-22.45 595.69-20.3 595.69-16.35L595.69-16.35 595.69-7.95Q595.74-5.7 596.42-3.78 597.09-1.85 598.19-1.1L598.19-1.1 598.29-0.6 592.94 0.7Q592.29-0.9 591.79-2.8ZM618.44-0.6L618.44 0 611.99 0 611.99-0.6Q612.84-3.1 612.84-8.5L612.84-8.5 612.84-29.35Q612.84-33.35 610.54-35.55L610.54-35.55 610.54-36.15 617.39-37.35 617.69-36.85Q617.54-35.4 617.54-27.25L617.54-27.25 617.59-8.5Q617.59-3.1 618.44-0.6L618.44-0.6ZM668.87-12.2Q666.87-12.25 663.22-12.25 659.57-12.25 657.67-12.2L657.67-12.2Q656.27-6.6 655.94-4.78 655.62-2.95 655.62-0.85L655.62-0.85 655.62 0 648.82 0 648.82-0.5Q651.07-2.25 654.84-14.38 658.62-26.5 659.74-30.25 660.87-34 660.97-35.05L660.97-35.05 666.82-35.65Q666.82-33.9 669.97-24.73 673.12-15.55 675.04-10.55 676.97-5.55 678.02-3.6 679.07-1.65 680.37-0.5L680.37-0.5 680.37 0 671.97 0 671.97-0.85Q671.97-2.65 671.49-4.2 671.02-5.75 670.87-6.2L670.87-6.2 668.87-12.2ZM663.07-31.3L663.07-31.3Q662.07-28.65 658.27-15.05L658.27-15.05 668.02-15.05Q667.12-17.8 665.37-23.7 663.62-29.6 663.07-31.3ZM704.56-24.6L704.56-24.6Q706.11-24.6 706.86-24.25L706.86-24.25Q706.86-23.95 706.86-23.65L706.86-23.65Q706.86-20.7 705.96-18.3L705.96-18.3Q703.71-19.75 700.86-19.75L700.86-19.75Q699.31-19.75 697.76-19.2L697.76-19.2 697.76-8.5Q697.76-3.65 699.21-0.35L699.21-0.35 699.21 0 692.21 0 692.21-0.35Q693.06-2.85 693.06-7L693.06-7 693.06-15.5Q693.06-17.65 692.18-19.73 691.31-21.8 690.16-22.5L690.16-22.5 690.11-23.1 696.01-24.65Q696.81-23.3 697.31-21.5L697.31-21.5Q700.31-24.6 704.56-24.6ZM720.2-6.95L720.2-6.95 720.2-16.65Q720.2-21.1 717.7-22.85L717.7-22.85 717.7-23.45 724.75-24.65 725.05-24.15Q724.9-22.7 724.9-20L724.9-20 724.9-8.2Q724.9-3.2 726.15-0.35L726.15-0.35 726.15 0 719.4 0 719.4-0.35Q720.2-2.7 720.2-6.95ZM724.4-35.4L724.4-35.4Q725.1-34.8 725.1-32.5L725.1-32.5Q725.1-31.95 725.05-31.5L725.05-31.5 724.65-31.15Q722.65-30.6 719.9-30.35L719.9-30.35 719.45-30.55Q718.7-31.85 718.7-34L718.7-34Q718.7-34.25 718.7-34.5L718.7-34.5 719.1-34.85Q721.5-35.65 723.7-35.65L723.7-35.65Q723.95-35.65 724.4-35.4ZM747.54-21.2L747.54-5.6Q747.54-2.95 749.14-2.95L749.14-2.95Q750.49-2.95 753.69-4.55L753.69-4.55 754.74-2.8Q753.14-1.7 750.74-0.58 748.34 0.55 746.34 0.55 744.34 0.55 743.59-0.7 742.84-1.95 742.84-4.3L742.84-4.3 742.84-21.15 738.34-20.9 739.54-24.15Q740.44-24.05 742.74-23.95L742.74-23.95Q742.64-26.45 742.44-28.45L742.44-28.45 747.54-29.75 747.54-24Q750.24-24.1 754.89-24.6L754.89-24.6 753.49-20.7Q750.79-21.1 747.54-21.2L747.54-21.2ZM774.08-27.25L774.08-27.25 774.08-20.4Q775.98-21.85 777.01-22.55 778.03-23.25 779.66-23.93 781.28-24.6 782.73-24.6L782.73-24.6Q786.43-24.6 788.43-22.3 790.43-20 790.43-15.7L790.43-15.7 790.43-8.5Q790.43-3.75 791.93-0.35L791.93-0.35 791.93 0 784.88 0 784.88-0.35Q785.73-2.85 785.73-7L785.73-7 785.73-14.65Q785.73-17.55 784.86-19.03 783.98-20.5 781.21-20.5 778.43-20.5 774.23-17.95L774.23-17.95 774.23-8.5Q774.23-3.65 775.68-0.35L775.68-0.35 775.68 0 768.68 0 768.68-0.35Q769.53-2.85 769.53-7L769.53-7 769.53-29.35Q769.53-33.35 767.23-35.55L767.23-35.55 767.23-36.15 773.93-37.35 774.23-36.85Q774.08-35.4 774.08-27.25ZM828.12-16.05L828.12-16.05 828.12-7Q828.12-3 828.87-0.35L828.87-0.35 828.87 0 822.67 0 822.67-0.35Q823.42-3 823.42-7L823.42-7 823.42-15Q823.42-17.85 822.67-19.18 821.92-20.5 819.67-20.5 817.42-20.5 813.62-17.95L813.62-17.95 813.62-8.5Q813.62-3.65 815.07-0.35L815.07-0.35 815.07 0 808.07 0 808.07-0.35Q808.92-2.85 808.92-7L808.92-7 808.92-15.5Q808.92-17.65 808.05-19.73 807.17-21.8 806.02-22.5L806.02-22.5 805.97-23.1 812.52-24.65 812.82-24.15Q813.22-22.3 813.42-20.4L813.42-20.4Q815.22-21.95 816-22.58 816.77-23.2 818.2-23.9 819.62-24.6 820.87-24.6L820.87-24.6Q826.02-24.6 827.52-20.15L827.52-20.15Q832.67-24.6 835.57-24.6L835.57-24.6Q839.07-24.6 841.02-22.3 842.97-20 842.97-15.7L842.97-15.7 842.97-8.5Q842.97-3.75 844.47-0.35L844.47-0.35 844.47 0 837.42 0 837.42-0.35Q838.27-2.85 838.27-7L838.27-7 838.27-14.65Q838.27-20.5 834.62-20.5L834.62-20.5Q831.57-20.5 828.02-17.9L828.02-17.9Q828.12-16.7 828.12-16.05ZM869.41 0.55L869.41 0.55Q864.16 0.55 861.21-2.7 858.26-5.95 858.26-11.28 858.26-16.6 861.56-20.6 864.86-24.6 869.76-24.6L869.76-24.6Q878.71-24.6 878.71-13.55L878.71-13.55 876.86-11.75 863.56-11.75Q863.56-7.55 865.36-5.45 867.16-3.35 870.21-3.35L870.21-3.35Q871.41-3.35 873.61-4.08 875.81-4.8 877.51-5.8L877.51-5.8 878.76-3.9Q877.81-2.95 874.64-1.2 871.46 0.55 869.41 0.55ZM868.86-22.1L868.86-22.1Q866.76-22.1 865.61-21.15L865.61-21.15Q864.66-19.85 864.11-17.85 863.56-15.85 863.56-14.35L863.56-14.35 873.81-14.75Q873.81-22.1 868.86-22.1ZM899.7-21.2L899.7-5.6Q899.7-2.95 901.3-2.95L901.3-2.95Q902.65-2.95 905.85-4.55L905.85-4.55 906.9-2.8Q905.3-1.7 902.9-0.58 900.5 0.55 898.5 0.55 896.5 0.55 895.75-0.7 895-1.95 895-4.3L895-4.3 895-21.15 890.5-20.9 891.7-24.15Q892.6-24.05 894.9-23.95L894.9-23.95Q894.8-26.45 894.6-28.45L894.6-28.45 899.7-29.75 899.7-24Q902.4-24.1 907.05-24.6L907.05-24.6 905.65-20.7Q902.95-21.1 899.7-21.2L899.7-21.2ZM921.74-6.95L921.74-6.95 921.74-16.65Q921.74-21.1 919.24-22.85L919.24-22.85 919.24-23.45 926.29-24.65 926.59-24.15Q926.44-22.7 926.44-20L926.44-20 926.44-8.2Q926.44-3.2 927.69-0.35L927.69-0.35 927.69 0 920.94 0 920.94-0.35Q921.74-2.7 921.74-6.95ZM925.94-35.4L925.94-35.4Q926.64-34.8 926.64-32.5L926.64-32.5Q926.64-31.95 926.59-31.5L926.59-31.5 926.19-31.15Q924.19-30.6 921.44-30.35L921.44-30.35 920.99-30.55Q920.24-31.85 920.24-34L920.24-34Q920.24-34.25 920.24-34.5L920.24-34.5 920.64-34.85Q923.04-35.65 925.24-35.65L925.24-35.65Q925.49-35.65 925.94-35.4ZM950.03-21.2Q948.38-20.2 947.43-17.73 946.48-15.25 946.48-11.83 946.48-8.4 947.86-5.85 949.23-3.3 952.23-3.3L952.23-3.3Q954.23-3.3 956.88-4.23 959.53-5.15 960.38-5.8L960.38-5.8 961.63-3.85Q955.23 0.55 951.93 0.55L951.93 0.55Q946.93 0.55 944.06-2.85 941.18-6.25 941.18-11.75 941.18-17.25 944.91-20.95 948.63-24.65 953.41-24.65 958.18-24.65 961.33-22.5L961.33-22.5Q959.38-19.4 958.78-18.75L958.78-18.75Q955.38-21.35 952.28-21.35L952.28-21.35Q951.13-21.35 950.03-21.2L950.03-21.2ZM1000.52-18.75L1000.52-18.75Q1000.52-11.55 1003.99-7.55 1007.47-3.55 1012.62-3.55L1012.62-3.55Q1016.37-3.55 1022.57-6.95L1022.57-6.95 1023.92-4.9Q1021.62-3.2 1020.34-2.45 1019.07-1.7 1017.47-0.9L1017.47-0.9Q1014.22 0.65 1010.52 0.65L1010.52 0.65Q1004.02 0.65 999.44-4.2 994.87-9.05 994.87-17.2 994.87-25.35 1000.17-30.48 1005.47-35.6 1013.32-35.6L1013.32-35.6Q1018.57-35.6 1023.17-33.2L1023.17-33.2Q1022.57-30.05 1021.07-27.9L1021.07-27.9Q1015.92-32.05 1009.92-32.05L1009.92-32.05Q1008.12-32.05 1006.42-31.7L1006.42-31.7Q1003.87-29.8 1002.19-26.55 1000.52-23.3 1000.52-18.75ZM1047.21 0.6Q1041.96 0.6 1038.91-2.73 1035.86-6.05 1035.86-11.43 1035.86-16.8 1039.41-20.7 1042.96-24.6 1048.33-24.6 1053.71-24.6 1056.63-21.35 1059.56-18.1 1059.56-12.65 1059.56-7.2 1056.01-3.3 1052.46 0.6 1047.21 0.6ZM1054.26-11.4L1054.26-11.4Q1054.26-16.35 1052.71-19.05 1051.16-21.75 1047.21-21.75L1047.21-21.75Q1044.66-21.75 1043.21-20.65L1043.21-20.65Q1042.31-19.5 1041.73-17.15 1041.16-14.8 1041.16-12.65L1041.16-12.65Q1041.16-2.2 1048.56-2.2L1048.56-2.2Q1050.86-2.2 1052.31-3.25L1052.31-3.25Q1053.26-4.4 1053.76-6.8 1054.26-9.2 1054.26-11.4ZM1095.2-16.05L1095.2-16.05 1095.2-7Q1095.2-3 1095.95-0.35L1095.95-0.35 1095.95 0 1089.75 0 1089.75-0.35Q1090.5-3 1090.5-7L1090.5-7 1090.5-15Q1090.5-17.85 1089.75-19.18 1089-20.5 1086.75-20.5 1084.5-20.5 1080.7-17.95L1080.7-17.95 1080.7-8.5Q1080.7-3.65 1082.15-0.35L1082.15-0.35 1082.15 0 1075.15 0 1075.15-0.35Q1076-2.85 1076-7L1076-7 1076-15.5Q1076-17.65 1075.12-19.73 1074.25-21.8 1073.1-22.5L1073.1-22.5 1073.05-23.1 1079.6-24.65 1079.9-24.15Q1080.3-22.3 1080.5-20.4L1080.5-20.4Q1082.3-21.95 1083.07-22.58 1083.85-23.2 1085.27-23.9 1086.7-24.6 1087.95-24.6L1087.95-24.6Q1093.1-24.6 1094.6-20.15L1094.6-20.15Q1099.75-24.6 1102.65-24.6L1102.65-24.6Q1106.15-24.6 1108.1-22.3 1110.05-20 1110.05-15.7L1110.05-15.7 1110.05-8.5Q1110.05-3.75 1111.55-0.35L1111.55-0.35 1111.55 0 1104.5 0 1104.5-0.35Q1105.35-2.85 1105.35-7L1105.35-7 1105.35-14.65Q1105.35-20.5 1101.7-20.5L1101.7-20.5Q1098.65-20.5 1095.1-17.9L1095.1-17.9Q1095.2-16.7 1095.2-16.05ZM1139.54-2.65L1139.54-2.65Q1141.79-2.65 1142.84-3.25L1142.84-3.25Q1143.64-4.2 1144.29-7.05 1144.94-9.9 1144.94-12.55L1144.94-12.55Q1144.94-20.9 1139.89-20.9L1139.89-20.9Q1136.69-20.9 1132.89-18.25L1132.89-18.25 1132.89-4.75Q1136.04-2.65 1139.54-2.65ZM1128.19 5L1128.19 5 1128.19-15.7Q1128.19-17.9 1127.49-19.83 1126.79-21.75 1125.64-22.45L1125.64-22.45 1125.59-23.05 1132.44-24.65 1132.74-24.15Q1132.64-23 1132.64-20.9L1132.64-20.9Q1136.79-24.6 1140.91-24.6 1145.04-24.6 1147.66-21.35 1150.29-18.1 1150.29-13.45L1150.29-13.45Q1150.29-7.65 1146.84-3.53 1143.39 0.6 1138.99 0.6L1138.99 0.6Q1136.09 0.6 1132.89-0.5L1132.89-0.5 1132.89 2.9Q1132.99 8.9 1134.94 11.3L1134.94 11.3 1134.94 11.55 1128.04 12.3Q1128.19 10.3 1128.19 5ZM1173.18 0.55L1173.18 0.55Q1168.98 0.55 1167.3-1.63 1165.63-3.8 1165.63-8.35L1165.63-8.35 1165.63-15.5Q1165.63-20.25 1164.13-23.65L1164.13-23.65 1164.13-24 1171.08-24 1171.08-23.65Q1170.33-21 1170.33-17L1170.33-17 1170.33-9.15Q1170.33-6.15 1171.08-4.85 1171.83-3.55 1174.73-3.55 1177.63-3.55 1181.53-6.3L1181.53-6.3 1181.53-15.5Q1181.53-20.35 1180.08-23.65L1180.08-23.65 1180.08-24 1186.98-24 1186.98-23.65Q1186.23-21 1186.23-17L1186.23-17 1186.23-8.55Q1186.23-6.35 1186.98-4.23 1187.73-2.1 1188.73-1.4L1188.73-1.4 1188.78-0.8 1182.93 0.6Q1182.08-1.7 1181.73-3.8L1181.73-3.8Q1179.28-1.7 1177.28-0.58 1175.28 0.55 1173.18 0.55ZM1210.42-21.2L1210.42-5.6Q1210.42-2.95 1212.02-2.95L1212.02-2.95Q1213.37-2.95 1216.57-4.55L1216.57-4.55 1217.62-2.8Q1216.02-1.7 1213.62-0.58 1211.22 0.55 1209.22 0.55 1207.22 0.55 1206.47-0.7 1205.72-1.95 1205.72-4.3L1205.72-4.3 1205.72-21.15 1201.22-20.9 1202.42-24.15Q1203.32-24.05 1205.62-23.95L1205.62-23.95Q1205.52-26.45 1205.32-28.45L1205.32-28.45 1210.42-29.75 1210.42-24Q1213.12-24.1 1217.77-24.6L1217.77-24.6 1216.37-20.7Q1213.67-21.1 1210.42-21.2L1210.42-21.2ZM1244.11-5.3L1244.11-10Q1242.06-10.75 1239.39-10.75 1236.71-10.75 1235.51-9.9L1235.51-9.9Q1234.76-8.75 1234.76-6.83 1234.76-4.9 1235.81-3.8 1236.86-2.7 1238.44-2.7 1240.01-2.7 1241.66-3.53 1243.31-4.35 1244.11-5.3L1244.11-5.3ZM1244.91-2.8L1244.91-2.8Q1241.86 0.55 1238.04 0.55 1234.21 0.55 1232.04-1.1 1229.86-2.75 1229.86-6.43 1229.86-10.1 1232.44-11.7 1235.01-13.3 1239.71-13.3L1239.71-13.3 1244.11-13.15 1244.11-16Q1244.11-18.65 1242.81-20.3 1241.51-21.95 1238.86-21.95L1238.86-21.95Q1236.91-21.9 1232.61-18.2L1232.61-18.2Q1231.16-20.05 1230.56-23L1230.56-23Q1235.51-24.6 1239.66-24.6 1243.81-24.6 1246.31-22.45 1248.81-20.3 1248.81-16.35L1248.81-16.35 1248.81-7.95Q1248.86-5.7 1249.54-3.78 1250.21-1.85 1251.31-1.1L1251.31-1.1 1251.41-0.6 1246.06 0.7Q1245.41-0.9 1244.91-2.8ZM1271.75-21.2L1271.75-5.6Q1271.75-2.95 1273.35-2.95L1273.35-2.95Q1274.7-2.95 1277.9-4.55L1277.9-4.55 1278.95-2.8Q1277.35-1.7 1274.95-0.58 1272.55 0.55 1270.55 0.55 1268.55 0.55 1267.8-0.7 1267.05-1.95 1267.05-4.3L1267.05-4.3 1267.05-21.15 1262.55-20.9 1263.75-24.15Q1264.65-24.05 1266.95-23.95L1266.95-23.95Q1266.85-26.45 1266.65-28.45L1266.65-28.45 1271.75-29.75 1271.75-24Q1274.45-24.1 1279.1-24.6L1279.1-24.6 1277.7-20.7Q1275-21.1 1271.75-21.2L1271.75-21.2ZM1293.79-6.95L1293.79-6.95 1293.79-16.65Q1293.79-21.1 1291.29-22.85L1291.29-22.85 1291.29-23.45 1298.34-24.65 1298.64-24.15Q1298.49-22.7 1298.49-20L1298.49-20 1298.49-8.2Q1298.49-3.2 1299.74-0.35L1299.74-0.35 1299.74 0 1292.99 0 1292.99-0.35Q1293.79-2.7 1293.79-6.95ZM1297.99-35.4L1297.99-35.4Q1298.69-34.8 1298.69-32.5L1298.69-32.5Q1298.69-31.95 1298.64-31.5L1298.64-31.5 1298.24-31.15Q1296.24-30.6 1293.49-30.35L1293.49-30.35 1293.04-30.55Q1292.29-31.85 1292.29-34L1292.29-34Q1292.29-34.25 1292.29-34.5L1292.29-34.5 1292.69-34.85Q1295.09-35.65 1297.29-35.65L1297.29-35.65Q1297.54-35.65 1297.99-35.4ZM1324.58 0.6Q1319.33 0.6 1316.28-2.73 1313.23-6.05 1313.23-11.43 1313.23-16.8 1316.78-20.7 1320.33-24.6 1325.71-24.6 1331.08-24.6 1334.01-21.35 1336.93-18.1 1336.93-12.65 1336.93-7.2 1333.38-3.3 1329.83 0.6 1324.58 0.6ZM1331.63-11.4L1331.63-11.4Q1331.63-16.35 1330.08-19.05 1328.53-21.75 1324.58-21.75L1324.58-21.75Q1322.03-21.75 1320.58-20.65L1320.58-20.65Q1319.68-19.5 1319.11-17.15 1318.53-14.8 1318.53-12.65L1318.53-12.65Q1318.53-2.2 1325.93-2.2L1325.93-2.2Q1328.23-2.2 1329.68-3.25L1329.68-3.25Q1330.63-4.4 1331.13-6.8 1331.63-9.2 1331.63-11.4ZM1366.42-24.6L1366.42-24.6Q1370.02-24.6 1372-22.3 1373.97-20 1373.97-15.7L1373.97-15.7 1373.97-8.5Q1373.97-3.75 1375.47-0.35L1375.47-0.35 1375.47 0 1368.42 0 1368.42-0.35Q1369.27-2.85 1369.27-7L1369.27-7 1369.27-14.65Q1369.27-17.55 1368.4-19.03 1367.52-20.5 1364.87-20.5 1362.22-20.5 1358.07-17.95L1358.07-17.95 1358.07-8.5Q1358.07-3.65 1359.52-0.35L1359.52-0.35 1359.52 0 1352.52 0 1352.52-0.35Q1353.37-2.85 1353.37-7L1353.37-7 1353.37-15.5Q1353.37-17.65 1352.5-19.73 1351.62-21.8 1350.47-22.5L1350.47-22.5 1350.42-23.1 1356.97-24.65 1357.27-24.15Q1357.67-22.3 1357.87-20.4L1357.87-20.4Q1359.72-21.85 1360.75-22.55 1361.77-23.25 1363.37-23.93 1364.97-24.6 1366.42-24.6Z" opacity="1" transform="matrix(1,0,0,1,0,0)" fill="black" class="slogan-text-1" id="SvgjsPath2058" stroke-width="7" stroke="black" stroke-linejoin="round"></path></svg></g></svg></g></svg></g></svg></g></svg></g></svg></g></svg></g></mask><g transform="matrix(1,0,0,1,39.55199999999999,102.5812848031924)"><svg viewBox="0 0 316.416 42.037430393615196" height="42.037430393615196" width="316.416"><g><svg viewBox="0 0 316.416 42.037430393615196" height="42.037430393615196" width="316.416"><g><svg viewBox="0 0 316.416 42.037430393615196" height="42.037430393615196" width="316.416"><g><svg viewBox="0 0 316.416 42.037430393615196" height="42.037430393615196" width="316.416"><g id="textblocktransform"><svg viewBox="0 0 316.416 42.037430393615196" height="42.037430393615196" width="316.416" id="textblock"><g><svg viewBox="0 0 316.416 24.46816785431512" height="24.46816785431512" width="316.416"><g transform="matrix(1,0,0,1,0,0)"><svg width="316.416" viewBox="-2 -40.15 569.29 44.949999999999996" height="24.46816785431512" data-palette-color="#556970"><path d="M2-15.3L2-15.3Q2-18.75 3.03-22.05 4.05-25.35 6.05-27.9 8.05-30.45 11.08-32.02 14.1-33.6 18.05-33.6L18.05-33.6Q21.7-33.6 24.25-32.27 26.8-30.95 28.43-28.7 30.05-26.45 30.8-23.5 31.55-20.55 31.55-17.3L31.55-17.3Q31.55-13.85 30.58-10.6 29.6-7.35 27.6-4.83 25.6-2.3 22.65-0.75 19.7 0.8 15.7 0.8L15.7 0.8Q12.05 0.8 9.45-0.5 6.85-1.8 5.2-4 3.55-6.2 2.78-9.13 2-12.05 2-15.3ZM17.2-2.1L17.2-2.1Q20.2-2.1 22.15-3.38 24.1-4.65 25.23-6.6 26.35-8.55 26.8-10.88 27.25-13.2 27.25-15.35L27.25-15.35Q27.25-18.15 26.65-20.9 26.05-23.65 24.75-25.83 23.45-28 21.43-29.33 19.4-30.65 16.55-30.65L16.55-30.65Q13.55-30.65 11.58-29.38 9.6-28.1 8.43-26.13 7.25-24.15 6.78-21.78 6.3-19.4 6.3-17.25L6.3-17.25Q6.3-14.45 6.95-11.73 7.6-9 8.95-6.88 10.3-4.75 12.35-3.43 14.4-2.1 17.2-2.1ZM35.2-1L35.2-1Q35.2-1.25 35.52-1.48 35.85-1.7 36.3-1.9 36.75-2.1 37.2-2.27 37.65-2.45 37.85-2.55L37.85-2.55 37.85-19Q36.85-19.2 35.8-19.65 34.75-20.1 34.75-20.45L34.75-20.45Q34.75-20.95 35.35-21.48 35.95-22 36.82-22.4 37.7-22.8 38.7-23.08 39.7-23.35 40.45-23.35L40.45-23.35Q41.55-23.35 41.65-22.85L41.65-22.85 41.65-20.3Q43.4-21.85 45.42-22.85 47.45-23.85 50-23.85L50-23.85Q51.75-23.85 53.07-23.38 54.4-22.9 55.4-21.6L55.4-21.6Q56.4-20.3 56.67-19.03 56.95-17.75 56.95-16.45L56.95-16.45 56.95-3.4Q56.95-2.8 57.42-2.58 57.9-2.35 58.45-2.2 59-2.05 59.45-1.85 59.9-1.65 59.9-1.1L59.9-1.1Q59.9-0.85 59.5-0.43 59.1 0 58.2 0L58.2 0 50.95 0Q50.35 0 50.17-0.35 50-0.7 50-1L50-1Q50-1.25 50.32-1.48 50.65-1.7 51.07-1.9 51.5-2.1 51.92-2.27 52.35-2.45 52.55-2.55L52.55-2.55 52.55-14.55Q52.55-18.05 51.27-19.5 50-20.95 48.05-20.95L48.05-20.95Q46.55-20.95 44.92-20.38 43.3-19.8 42.15-18.75L42.15-18.75 42.15-3.7Q42.15-2.95 42.67-2.68 43.2-2.4 43.85-2.25 44.5-2.1 45.02-1.9 45.55-1.7 45.55-1.1L45.55-1.1Q45.55 0 43.85 0L43.85 0 36.15 0Q35.55 0 35.37-0.35 35.2-0.7 35.2-1ZM62.3-1L62.3-1Q62.3-1.25 62.62-1.48 62.95-1.7 63.4-1.9 63.85-2.1 64.3-2.27 64.75-2.45 64.95-2.55L64.95-2.55 64.95-32.95Q63.85-33.1 63.07-33.4 62.3-33.7 62.3-34L62.3-34Q62.3-34.7 62.9-35.1 63.5-35.5 64.37-35.75 65.25-36 66.22-36.08 67.2-36.15 68-36.15L68-36.15Q68.95-36.15 69.15-35.7L69.15-35.7 69.15-3.7Q69.15-2.95 69.7-2.68 70.25-2.4 70.92-2.27 71.6-2.15 72.15-1.95 72.7-1.75 72.7-1.1L72.7-1.1Q72.7 0 71 0L71 0 63.25 0Q62.65 0 62.47-0.35 62.3-0.7 62.3-1ZM75.64-1L75.64-1Q75.64-1.25 76.04-1.5 76.44-1.75 76.99-1.98 77.54-2.2 78.07-2.38 78.59-2.55 78.89-2.7L78.89-2.7 78.89-19Q78.39-19.1 77.82-19.28 77.24-19.45 76.77-19.65 76.29-19.85 75.97-20.05 75.64-20.25 75.64-20.45L75.64-20.45Q75.64-20.95 76.24-21.48 76.84-22 77.74-22.4 78.64-22.8 79.64-23.08 80.64-23.35 81.44-23.35L81.44-23.35Q81.89-23.35 82.44-23.25 82.99-23.15 83.09-22.85L83.09-22.85 83.09-3.7Q83.09-2.95 83.64-2.68 84.19-2.4 84.84-2.25 85.49-2.1 86.04-1.9 86.59-1.7 86.59-1.1L86.59-1.1Q86.59 0 84.89 0L84.89 0 76.59 0Q75.99 0 75.82-0.35 75.64-0.7 75.64-1ZM80.99-27.7L80.99-27.7Q79.89-27.7 79.14-27.98 78.39-28.25 77.99-28.6 77.59-28.95 77.42-29.3 77.24-29.65 77.24-29.8L77.24-29.8Q77.24-30.2 77.49-30.75 77.74-31.3 78.14-31.78 78.54-32.25 79.04-32.58 79.54-32.9 80.04-32.9L80.04-32.9Q82.24-32.9 83.09-32.1 83.94-31.3 83.94-30.6L83.94-30.6Q83.94-30.15 83.67-29.65 83.39-29.15 82.97-28.73 82.54-28.3 82.02-28 81.49-27.7 80.99-27.7ZM89.64-1L89.64-1Q89.64-1.25 89.97-1.48 90.29-1.7 90.74-1.9 91.19-2.1 91.64-2.27 92.09-2.45 92.29-2.55L92.29-2.55 92.29-19Q91.29-19.2 90.24-19.65 89.19-20.1 89.19-20.45L89.19-20.45Q89.19-20.95 89.79-21.48 90.39-22 91.27-22.4 92.14-22.8 93.14-23.08 94.14-23.35 94.89-23.35L94.89-23.35Q95.99-23.35 96.09-22.85L96.09-22.85 96.09-20.3Q97.84-21.85 99.87-22.85 101.89-23.85 104.44-23.85L104.44-23.85Q106.19-23.85 107.52-23.38 108.84-22.9 109.84-21.6L109.84-21.6Q110.84-20.3 111.12-19.03 111.39-17.75 111.39-16.45L111.39-16.45 111.39-3.4Q111.39-2.8 111.87-2.58 112.34-2.35 112.89-2.2 113.44-2.05 113.89-1.85 114.34-1.65 114.34-1.1L114.34-1.1Q114.34-0.85 113.94-0.43 113.54 0 112.64 0L112.64 0 105.39 0Q104.79 0 104.62-0.35 104.44-0.7 104.44-1L104.44-1Q104.44-1.25 104.77-1.48 105.09-1.7 105.52-1.9 105.94-2.1 106.37-2.27 106.79-2.45 106.99-2.55L106.99-2.55 106.99-14.55Q106.99-18.05 105.72-19.5 104.44-20.95 102.49-20.95L102.49-20.95Q100.99-20.95 99.37-20.38 97.74-19.8 96.59-18.75L96.59-18.75 96.59-3.7Q96.59-2.95 97.12-2.68 97.64-2.4 98.29-2.25 98.94-2.1 99.47-1.9 99.99-1.7 99.99-1.1L99.99-1.1Q99.99 0 98.29 0L98.29 0 90.59 0Q89.99 0 89.82-0.35 89.64-0.7 89.64-1ZM117.04-10.1L117.04-10.1Q117.04-13 117.84-15.5 118.64-18 120.11-19.85 121.59-21.7 123.71-22.78 125.84-23.85 128.44-23.85L128.44-23.85Q131.29-23.85 132.99-22.73 134.69-21.6 135.61-19.85 136.54-18.1 136.84-16.03 137.14-13.95 137.19-12L137.19-12Q137.19-11.25 136.54-11.15 135.89-11.05 135.19-11.05L135.19-11.05 121.64-11.05Q121.74-9.35 122.16-7.75 122.59-6.15 123.41-4.9 124.24-3.65 125.51-2.88 126.79-2.1 128.49-2.1L128.49-2.1Q130.34-2.1 131.49-2.38 132.64-2.65 133.39-2.98 134.14-3.3 134.66-3.58 135.19-3.85 135.79-3.85L135.79-3.85Q136.49-3.85 136.49-3.3L136.49-3.3Q136.49-2.65 135.74-1.93 134.99-1.2 133.71-0.58 132.44 0.05 130.76 0.43 129.09 0.8 127.24 0.8L127.24 0.8Q124.59 0.8 122.66-0.1 120.74-1 119.49-2.5 118.24-4 117.64-5.98 117.04-7.95 117.04-10.1ZM121.64-13.3L132.24-13.65Q132.19-15.2 131.99-16.57 131.79-17.95 131.24-18.95 130.69-19.95 129.64-20.55 128.59-21.15 126.89-21.15L126.89-21.15Q124.39-21.15 123.11-18.93 121.84-16.7 121.64-13.3L121.64-13.3ZM154.38-1.2L154.38-1.2Q154.38-1.5 154.78-1.73 155.18-1.95 155.71-2.13 156.23-2.3 156.78-2.45 157.33-2.6 157.58-2.75L157.58-2.75 157.58-29.3Q157.53-29.7 157.03-29.95 156.53-30.2 155.93-30.4 155.33-30.6 154.86-30.83 154.38-31.05 154.38-31.4L154.38-31.4Q154.38-31.7 154.56-32.3 154.73-32.9 155.33-32.9L155.33-32.9 159.33-32.9Q159.88-32.9 160.21-32.6 160.53-32.3 160.93-31.75L160.93-31.75 176.93-10.3 179.43-5.2 179.43-30.15Q179.18-30.3 178.63-30.45 178.08-30.6 177.56-30.78 177.03-30.95 176.63-31.18 176.23-31.4 176.23-31.7L176.23-31.7Q176.23-32 176.41-32.45 176.58-32.9 177.18-32.9L177.18-32.9 184.48-32.9Q185.38-32.9 185.78-32.48 186.18-32.05 186.18-31.8L186.18-31.8Q186.18-31.15 185.63-30.95 185.08-30.75 184.41-30.63 183.73-30.5 183.18-30.23 182.63-29.95 182.63-29.2L182.63-29.2 182.63-1.3Q182.63-0.8 182.31-0.55 181.98-0.3 181.51-0.18 181.03-0.05 180.48-0.03 179.93 0 179.48 0L179.48 0 163.83-20.35 160.68-26 160.68-3.7Q160.68-2.95 161.23-2.68 161.78-2.4 162.46-2.27 163.13-2.15 163.68-1.95 164.23-1.75 164.23-1.1L164.23-1.1Q164.23-0.85 163.83-0.43 163.43 0 162.53 0L162.53 0 155.33 0Q154.73 0 154.56-0.45 154.38-0.9 154.38-1.2ZM188.73-10.1L188.73-10.1Q188.73-13 189.53-15.5 190.33-18 191.81-19.85 193.28-21.7 195.41-22.78 197.53-23.85 200.13-23.85L200.13-23.85Q202.98-23.85 204.68-22.73 206.38-21.6 207.31-19.85 208.23-18.1 208.53-16.03 208.83-13.95 208.88-12L208.88-12Q208.88-11.25 208.23-11.15 207.58-11.05 206.88-11.05L206.88-11.05 193.33-11.05Q193.43-9.35 193.85-7.75 194.28-6.15 195.1-4.9 195.93-3.65 197.2-2.88 198.48-2.1 200.18-2.1L200.18-2.1Q202.03-2.1 203.18-2.38 204.33-2.65 205.08-2.98 205.83-3.3 206.35-3.58 206.88-3.85 207.48-3.85L207.48-3.85Q208.18-3.85 208.18-3.3L208.18-3.3Q208.18-2.65 207.43-1.93 206.68-1.2 205.41-0.58 204.13 0.05 202.45 0.43 200.78 0.8 198.93 0.8L198.93 0.8Q196.28 0.8 194.35-0.1 192.43-1 191.18-2.5 189.93-4 189.33-5.98 188.73-7.95 188.73-10.1ZM193.33-13.3L203.93-13.65Q203.88-15.2 203.68-16.57 203.48-17.95 202.93-18.95 202.38-19.95 201.33-20.55 200.28-21.15 198.58-21.15L198.58-21.15Q196.08-21.15 194.81-18.93 193.53-16.7 193.33-13.3L193.33-13.3ZM215.38-1.45L215.38-1.45Q214.48-2.8 214.28-4.08 214.08-5.35 214.08-6.6L214.08-6.6 213.98-20.25Q213.03-20.4 212.38-20.88 211.73-21.35 211.73-21.7L211.73-21.7Q211.73-22.45 213.13-22.83 214.53-23.2 217.18-23.2L217.18-23.2Q217.73-23.2 218-23.13 218.28-23.05 218.38-22.7L218.38-22.7 218.38-9Q218.38-6.55 218.68-5.13 218.98-3.7 219.5-3 220.03-2.3 220.8-2.13 221.58-1.95 222.53-1.95L222.53-1.95Q223.93-1.95 225.38-2.53 226.83-3.1 228.03-4.05L228.03-4.05 228.03-20.2Q226.88-20.35 225.88-20.73 224.88-21.1 224.88-21.65L224.88-21.65Q224.88-22.4 226.48-22.78 228.08-23.15 231.13-23.15L231.13-23.15Q231.53-23.15 231.83-23.05 232.13-22.95 232.23-22.55L232.23-22.55 232.23-2.15Q232.68-2.15 232.85-2.33 233.03-2.5 233.88-2.5L233.88-2.5Q234.93-2.5 234.93-1.75L234.93-1.75Q234.93-1.55 234.63-1.13 234.33-0.7 233.75-0.28 233.18 0.15 232.3 0.48 231.43 0.8 230.28 0.8L230.28 0.8Q229.38 0.8 228.7 0.4 228.03 0 228.03-0.95L228.03-0.95 228.03-2.2Q226.53-0.9 224.88-0.05 223.23 0.8 220.93 0.8L220.93 0.8Q219.43 0.8 217.83 0.33 216.23-0.15 215.38-1.45ZM237.93-1L237.93-1Q237.93-1.25 238.25-1.48 238.58-1.7 239.03-1.9 239.47-2.1 239.93-2.27 240.38-2.45 240.58-2.55L240.58-2.55 240.58-19Q239.58-19.2 238.53-19.65 237.47-20.1 237.47-20.45L237.47-20.45Q237.47-20.95 238.08-21.48 238.68-22 239.55-22.4 240.43-22.8 241.43-23.08 242.43-23.35 243.18-23.35L243.18-23.35Q243.58-23.35 243.93-23.25 244.28-23.15 244.38-22.85L244.38-22.85 244.38-18.2Q245.43-20.55 247.1-22.2 248.78-23.85 251.03-23.85L251.03-23.85Q251.47-23.85 252.15-23.7 252.83-23.55 253.5-23.13 254.18-22.7 254.65-21.95 255.13-21.2 255.13-20.05L255.13-20.05Q255.13-19.6 254.83-19.18 254.53-18.75 254.08-18.43 253.63-18.1 253.1-17.88 252.58-17.65 252.08-17.6L252.08-17.6Q251.68-17.6 251.4-17.78 251.13-17.95 251.03-18.65L251.03-18.65Q250.78-19.8 250.3-20.15 249.83-20.5 248.88-20.5L248.88-20.5Q248.18-20.5 247.47-19.8 246.78-19.1 246.2-18.07 245.63-17.05 245.25-15.93 244.88-14.8 244.88-13.95L244.88-13.95 244.88-3.6Q244.88-2.9 245.63-2.68 246.38-2.45 247.25-2.33 248.13-2.2 248.85-1.98 249.58-1.75 249.58-1.1L249.58-1.1Q249.58 0 247.88 0L247.88 0 238.88 0Q238.28 0 238.1-0.35 237.93-0.7 237.93-1ZM257.87-10.5L257.87-10.5Q257.87-13.05 258.62-15.45 259.37-17.85 260.87-19.73 262.37-21.6 264.62-22.73 266.87-23.85 269.82-23.85L269.82-23.85Q272.52-23.85 274.45-22.8 276.37-21.75 277.57-20.08 278.77-18.4 279.32-16.32 279.87-14.25 279.87-12.2L279.87-12.2Q279.87-11 279.67-9.63 279.47-8.25 279.02-6.9 278.57-5.55 277.85-4.33 277.12-3.1 276.02-2.15L276.02-2.15Q274.42-0.7 272.2 0.05 269.97 0.8 267.72 0.8L267.72 0.8Q265.67 0.8 263.87 0.1 262.07-0.6 260.75-2.02 259.42-3.45 258.65-5.55 257.87-7.65 257.87-10.5ZM262.42-12.2L262.42-12.2Q262.42-10.4 262.8-8.53 263.17-6.65 264.02-5.13 264.87-3.6 266.35-2.6 267.82-1.6 269.97-1.6L269.97-1.6Q271.47-1.6 272.5-2.35 273.52-3.1 274.17-4.35 274.82-5.6 275.1-7.2 275.37-8.8 275.37-10.5L275.37-10.5Q275.37-12.35 275-14.3 274.62-16.25 273.75-17.82 272.87-19.4 271.45-20.43 270.02-21.45 267.87-21.45L267.87-21.45Q266.37-21.45 265.32-20.65 264.27-19.85 263.65-18.53 263.02-17.2 262.72-15.55 262.42-13.9 262.42-12.2ZM284.22-1L284.22-1Q284.22-1.25 284.55-1.48 284.87-1.7 285.32-1.9 285.77-2.1 286.22-2.27 286.67-2.45 286.87-2.55L286.87-2.55 286.87-19Q285.87-19.2 284.82-19.65 283.77-20.1 283.77-20.45L283.77-20.45Q283.77-20.95 284.37-21.48 284.97-22 285.84-22.4 286.72-22.8 287.72-23.08 288.72-23.35 289.47-23.35L289.47-23.35Q290.57-23.35 290.67-22.85L290.67-22.85 290.67-20.3Q292.42-21.85 294.44-22.85 296.47-23.85 299.02-23.85L299.02-23.85Q300.77-23.85 302.09-23.38 303.42-22.9 304.42-21.6L304.42-21.6Q305.42-20.3 305.69-19.03 305.97-17.75 305.97-16.45L305.97-16.45 305.97-3.4Q305.97-2.8 306.44-2.58 306.92-2.35 307.47-2.2 308.02-2.05 308.47-1.85 308.92-1.65 308.92-1.1L308.92-1.1Q308.92-0.85 308.52-0.43 308.12 0 307.22 0L307.22 0 299.97 0Q299.37 0 299.19-0.35 299.02-0.7 299.02-1L299.02-1Q299.02-1.25 299.34-1.48 299.67-1.7 300.09-1.9 300.52-2.1 300.94-2.27 301.37-2.45 301.57-2.55L301.57-2.55 301.57-14.55Q301.57-18.05 300.3-19.5 299.02-20.95 297.07-20.95L297.07-20.95Q295.57-20.95 293.94-20.38 292.32-19.8 291.17-18.75L291.17-18.75 291.17-3.7Q291.17-2.95 291.69-2.68 292.22-2.4 292.87-2.25 293.52-2.1 294.05-1.9 294.57-1.7 294.57-1.1L294.57-1.1Q294.57 0 292.87 0L292.87 0 285.17 0Q284.57 0 284.39-0.35 284.22-0.7 284.22-1ZM325.36-1.2L325.36-1.2Q325.36-1.5 325.76-1.73 326.16-1.95 326.69-2.13 327.21-2.3 327.76-2.45 328.31-2.6 328.56-2.75L328.56-2.75 328.56-30.15Q328.31-30.3 327.76-30.43 327.21-30.55 326.69-30.75 326.16-30.95 325.76-31.18 325.36-31.4 325.36-31.7L325.36-31.7Q325.36-32 325.54-32.45 325.71-32.9 326.31-32.9L326.31-32.9 342.41-32.9Q343.26-32.9 344.04-32.88 344.81-32.85 345.41-32.7 346.01-32.55 346.39-32.25 346.76-31.95 346.76-31.4L346.76-31.4Q346.76-30.8 346.61-29.63 346.46-28.45 346.24-27.3 346.01-26.15 345.69-25.28 345.36-24.4 344.96-24.4L344.96-24.4Q344.26-24.4 343.91-25.38 343.56-26.35 343.21-27.53 342.86-28.7 342.31-29.68 341.76-30.65 340.66-30.65L340.66-30.65 333.01-30.65 333.01-17.85 342.56-18.2Q343.41-18.15 343.41-17.6L343.41-17.6Q343.41-17.3 343.26-16.82 343.11-16.35 342.86-15.9 342.61-15.45 342.31-15.1 342.01-14.75 341.66-14.7L341.66-14.7 333.01-15.15 333.01-2.85Q333.61-2.7 334.59-2.63 335.56-2.55 336.54-2.4 337.51-2.25 338.21-1.98 338.91-1.7 338.91-1.2L338.91-1.2Q338.91-0.95 338.69-0.48 338.46 0 337.91 0L337.91 0 326.31 0Q325.71 0 325.54-0.45 325.36-0.9 325.36-1.2ZM349.86-1L349.86-1Q349.86-1.25 350.19-1.48 350.51-1.7 350.96-1.9 351.41-2.1 351.86-2.27 352.31-2.45 352.51-2.55L352.51-2.55 352.51-19Q351.51-19.2 350.46-19.65 349.41-20.1 349.41-20.45L349.41-20.45Q349.41-20.95 350.01-21.48 350.61-22 351.49-22.4 352.36-22.8 353.36-23.08 354.36-23.35 355.11-23.35L355.11-23.35Q355.51-23.35 355.86-23.25 356.21-23.15 356.31-22.85L356.31-22.85 356.31-18.2Q357.36-20.55 359.04-22.2 360.71-23.85 362.96-23.85L362.96-23.85Q363.41-23.85 364.09-23.7 364.76-23.55 365.44-23.13 366.11-22.7 366.59-21.95 367.06-21.2 367.06-20.05L367.06-20.05Q367.06-19.6 366.76-19.18 366.46-18.75 366.01-18.43 365.56-18.1 365.04-17.88 364.51-17.65 364.01-17.6L364.01-17.6Q363.61-17.6 363.34-17.78 363.06-17.95 362.96-18.65L362.96-18.65Q362.71-19.8 362.24-20.15 361.76-20.5 360.81-20.5L360.81-20.5Q360.11-20.5 359.41-19.8 358.71-19.1 358.14-18.07 357.56-17.05 357.19-15.93 356.81-14.8 356.81-13.95L356.81-13.95 356.81-3.6Q356.81-2.9 357.56-2.68 358.31-2.45 359.19-2.33 360.06-2.2 360.79-1.98 361.51-1.75 361.51-1.1L361.51-1.1Q361.51 0 359.81 0L359.81 0 350.81 0Q350.21 0 350.04-0.35 349.86-0.7 349.86-1ZM369.56-5.05L369.56-5.05Q369.56-7.3 370.71-8.85 371.86-10.4 373.76-11.43 375.66-12.45 378.08-13 380.51-13.55 383.06-13.75L383.06-13.75 383.06-14.85Q383.06-16.05 382.91-17.25 382.76-18.45 382.21-19.45L382.21-19.45Q381.61-20.45 380.58-20.73 379.56-21 378.56-21L378.56-21Q377.21-21 376.46-20.93 375.71-20.85 375.33-20.65 374.96-20.45 374.88-20.08 374.81-19.7 374.81-19.05L374.81-19.05Q374.81-18.35 374.98-18.18 375.16-18 375.16-17.75L375.16-17.75Q375.16-17.35 374.83-16.93 374.51-16.5 374.03-16.18 373.56-15.85 372.98-15.65 372.41-15.45 371.91-15.45L371.91-15.45Q370.76-15.45 370.51-16.13 370.26-16.8 370.26-17.3L370.26-17.3Q370.26-18.5 371.43-19.65 372.61-20.8 374.28-21.75 375.96-22.7 377.76-23.28 379.56-23.85 380.81-23.85L380.81-23.85Q382.91-23.85 384.23-23.2 385.56-22.55 386.26-21.5 386.96-20.45 387.21-19.13 387.46-17.8 387.46-16.45L387.46-16.45 387.46-2.15Q388.01-2.15 388.61-2.38 389.21-2.6 389.81-2.6L389.81-2.6Q390.36-2.6 390.53-2.4 390.71-2.2 390.71-1.85L390.71-1.85Q390.71-1.65 390.31-1.23 389.91-0.8 389.18-0.35 388.46 0.1 387.51 0.45 386.56 0.8 385.41 0.8L385.41 0.8Q384.46 0.8 383.76 0.4 383.06 0 383.06-0.95L383.06-0.95 383.06-2.85Q381.76-1.25 380.21-0.23 378.66 0.8 376.46 0.8L376.46 0.8Q374.61 0.8 373.28 0.25 371.96-0.3 371.13-1.18 370.31-2.05 369.93-3.08 369.56-4.1 369.56-5.05ZM374.26-6.7L374.26-6.7Q374.26-4.7 375.26-3.35 376.26-2 378.96-2L378.96-2Q379.96-2 381.08-2.75 382.21-3.5 383.06-4.7L383.06-4.7 383.06-11.45Q381.66-11.4 380.11-11.18 378.56-10.95 377.26-10.45 375.96-9.95 375.11-9.05 374.26-8.15 374.26-6.7ZM393.56-1L393.56-1Q393.56-1.25 393.88-1.48 394.21-1.7 394.66-1.9 395.11-2.1 395.56-2.27 396.01-2.45 396.21-2.55L396.21-2.55 396.21-19Q395.21-19.2 394.16-19.65 393.11-20.1 393.11-20.45L393.11-20.45Q393.11-20.95 393.71-21.48 394.31-22 395.18-22.4 396.06-22.8 397.06-23.08 398.06-23.35 398.81-23.35L398.81-23.35Q399.91-23.35 400.01-22.85L400.01-22.85 400.01-20.3Q401.81-21.75 403.88-22.8 405.96-23.85 408.41-23.85L408.41-23.85Q410.46-23.85 412.03-23.13 413.61-22.4 414.56-20.3L414.56-20.3Q416.31-21.75 418.36-22.8 420.41-23.85 422.66-23.85L422.66-23.85Q424.26-23.85 425.71-23.38 427.16-22.9 428.06-21.6L428.06-21.6Q428.96-20.3 429.16-19 429.36-17.7 429.36-16.45L429.36-16.45 429.36-3.5Q429.36-2.85 429.88-2.63 430.41-2.4 431.03-2.25 431.66-2.1 432.18-1.9 432.71-1.7 432.71-1.1L432.71-1.1Q432.71-0.85 432.31-0.43 431.91 0 431.01 0L431.01 0 423.51 0Q422.91 0 422.73-0.35 422.56-0.7 422.56-1L422.56-1Q422.56-1.25 422.88-1.48 423.21-1.7 423.63-1.9 424.06-2.1 424.48-2.27 424.91-2.45 425.11-2.55L425.11-2.55 425.06-14.45Q425.01-17.95 423.83-19.4 422.66-20.85 420.71-20.85L420.71-20.85Q419.41-20.85 417.93-20.4 416.46-19.95 415.61-18.9L415.61-18.9 415.11-18.45Q415.26-17.4 415.26-16.45L415.26-16.45 415.26-3.7Q415.26-2.95 415.78-2.68 416.31-2.4 416.93-2.25 417.56-2.1 418.08-1.9 418.61-1.7 418.61-1.1L418.61-1.1Q418.61-0.85 418.21-0.43 417.81 0 416.91 0L416.91 0 409.36 0Q408.76 0 408.58-0.35 408.41-0.7 408.41-1L408.41-1Q408.41-1.25 408.73-1.48 409.06-1.7 409.48-1.9 409.91-2.1 410.33-2.27 410.76-2.45 410.96-2.55L410.96-2.55 410.96-14.45Q410.96-17.95 409.66-19.4 408.36-20.85 406.41-20.85L406.41-20.85Q404.91-20.85 403.31-20.25 401.71-19.65 400.56-18.5L400.56-18.5 400.51-3.7Q400.51-2.95 401.03-2.68 401.56-2.4 402.21-2.25 402.86-2.1 403.38-1.9 403.91-1.7 403.91-1.1L403.91-1.1Q403.91 0 402.21 0L402.21 0 394.51 0Q393.91 0 393.73-0.35 393.56-0.7 393.56-1ZM435-10.1L435-10.1Q435-13 435.8-15.5 436.6-18 438.08-19.85 439.55-21.7 441.68-22.78 443.8-23.85 446.4-23.85L446.4-23.85Q449.25-23.85 450.95-22.73 452.65-21.6 453.58-19.85 454.5-18.1 454.8-16.03 455.1-13.95 455.15-12L455.15-12Q455.15-11.25 454.5-11.15 453.85-11.05 453.15-11.05L453.15-11.05 439.6-11.05Q439.7-9.35 440.13-7.75 440.55-6.15 441.38-4.9 442.2-3.65 443.48-2.88 444.75-2.1 446.45-2.1L446.45-2.1Q448.3-2.1 449.45-2.38 450.6-2.65 451.35-2.98 452.1-3.3 452.63-3.58 453.15-3.85 453.75-3.85L453.75-3.85Q454.45-3.85 454.45-3.3L454.45-3.3Q454.45-2.65 453.7-1.93 452.95-1.2 451.68-0.58 450.4 0.05 448.73 0.43 447.05 0.8 445.2 0.8L445.2 0.8Q442.55 0.8 440.63-0.1 438.7-1 437.45-2.5 436.2-4 435.6-5.98 435-7.95 435-10.1ZM439.6-13.3L450.2-13.65Q450.15-15.2 449.95-16.57 449.75-17.95 449.2-18.95 448.65-19.95 447.6-20.55 446.55-21.15 444.85-21.15L444.85-21.15Q442.35-21.15 441.08-18.93 439.8-16.7 439.6-13.3L439.6-13.3ZM467.25 0.5L459.1-19.75 458.7-20.6Q457.75-20.7 457.08-21.05 456.4-21.4 456.4-22.3L456.4-22.3Q456.4-22.5 456.73-22.7 457.05-22.9 457.75-22.9L457.75-22.9 464.75-22.9Q465.35-22.9 465.63-22.5 465.9-22.1 465.9-21.75L465.9-21.75Q465.9-21.2 465.18-20.98 464.45-20.75 463.45-20.6L463.45-20.6 468.95-5.2 473-16.65 471.85-19.75 471.45-20.6Q470.5-20.7 470-21.05 469.5-21.4 469.5-22.3L469.5-22.3Q469.5-22.5 469.93-22.7 470.35-22.9 471.05-22.9L471.05-22.9 478-22.9Q478.55-22.9 478.83-22.5 479.1-22.1 479.1-21.75L479.1-21.75Q479.1-21.2 478.2-20.98 477.3-20.75 476.05-20.6L476.05-20.6 481.05-5.3 486.55-20.6Q486.05-20.7 485.38-20.78 484.7-20.85 484.08-20.98 483.45-21.1 483-21.3 482.55-21.5 482.55-21.75L482.55-21.75Q482.55-22.1 482.8-22.5 483.05-22.9 483.6-22.9L483.6-22.9 490.65-22.9Q491.35-22.9 491.7-22.7 492.05-22.5 492.05-22.3L492.05-22.3Q492.05-21.4 491.28-21.05 490.5-20.7 489.5-20.6L489.5-20.6 481.55 0.5 479.35 0.5 474.4-12.9 469.3 0.5 467.25 0.5ZM493.35-10.5L493.35-10.5Q493.35-13.05 494.1-15.45 494.85-17.85 496.35-19.73 497.85-21.6 500.1-22.73 502.35-23.85 505.3-23.85L505.3-23.85Q508-23.85 509.92-22.8 511.85-21.75 513.05-20.08 514.25-18.4 514.8-16.32 515.35-14.25 515.35-12.2L515.35-12.2Q515.35-11 515.15-9.63 514.95-8.25 514.5-6.9 514.05-5.55 513.32-4.33 512.6-3.1 511.5-2.15L511.5-2.15Q509.9-0.7 507.67 0.05 505.45 0.8 503.2 0.8L503.2 0.8Q501.15 0.8 499.35 0.1 497.55-0.6 496.22-2.02 494.9-3.45 494.13-5.55 493.35-7.65 493.35-10.5ZM497.9-12.2L497.9-12.2Q497.9-10.4 498.27-8.53 498.65-6.65 499.5-5.13 500.35-3.6 501.82-2.6 503.3-1.6 505.45-1.6L505.45-1.6Q506.95-1.6 507.97-2.35 509-3.1 509.65-4.35 510.3-5.6 510.57-7.2 510.85-8.8 510.85-10.5L510.85-10.5Q510.85-12.35 510.47-14.3 510.1-16.25 509.22-17.82 508.35-19.4 506.92-20.43 505.5-21.45 503.35-21.45L503.35-21.45Q501.85-21.45 500.8-20.65 499.75-19.85 499.13-18.53 498.5-17.2 498.2-15.55 497.9-13.9 497.9-12.2ZM519.45-1L519.45-1Q519.45-1.25 519.77-1.48 520.1-1.7 520.55-1.9 521-2.1 521.45-2.27 521.9-2.45 522.1-2.55L522.1-2.55 522.1-19Q521.1-19.2 520.05-19.65 519-20.1 519-20.45L519-20.45Q519-20.95 519.6-21.48 520.2-22 521.07-22.4 521.95-22.8 522.95-23.08 523.95-23.35 524.7-23.35L524.7-23.35Q525.1-23.35 525.45-23.25 525.8-23.15 525.9-22.85L525.9-22.85 525.9-18.2Q526.95-20.55 528.62-22.2 530.3-23.85 532.55-23.85L532.55-23.85Q533-23.85 533.67-23.7 534.35-23.55 535.02-23.13 535.7-22.7 536.17-21.95 536.65-21.2 536.65-20.05L536.65-20.05Q536.65-19.6 536.35-19.18 536.05-18.75 535.6-18.43 535.15-18.1 534.62-17.88 534.1-17.65 533.6-17.6L533.6-17.6Q533.2-17.6 532.92-17.78 532.65-17.95 532.55-18.65L532.55-18.65Q532.3-19.8 531.82-20.15 531.35-20.5 530.4-20.5L530.4-20.5Q529.7-20.5 529-19.8 528.3-19.1 527.72-18.07 527.15-17.05 526.77-15.93 526.4-14.8 526.4-13.95L526.4-13.95 526.4-3.6Q526.4-2.9 527.15-2.68 527.9-2.45 528.77-2.33 529.65-2.2 530.37-1.98 531.1-1.75 531.1-1.1L531.1-1.1Q531.1 0 529.4 0L529.4 0 520.4 0Q519.8 0 519.62-0.35 519.45-0.7 519.45-1ZM538.19-1L538.19-1Q538.19-1.25 538.52-1.48 538.84-1.7 539.29-1.9 539.74-2.1 540.19-2.27 540.64-2.45 540.84-2.55L540.84-2.55 540.84-32.95Q539.74-33.1 539.04-33.4 538.34-33.7 538.34-34L538.34-34Q538.34-34.7 538.92-35.1 539.49-35.5 540.37-35.75 541.24-36 542.22-36.08 543.19-36.15 543.94-36.15L543.94-36.15Q544.34-36.15 544.67-36.1 544.99-36.05 545.09-35.7L545.09-35.7 545.09-11.1 553.54-20.6Q553.09-20.7 552.54-20.78 551.99-20.85 551.54-21 551.09-21.15 550.77-21.35 550.44-21.55 550.44-21.8L550.44-21.8Q550.44-22.1 550.72-22.5 550.99-22.9 551.54-22.9L551.54-22.9 559.09-22.9Q559.94-22.9 560.29-22.73 560.64-22.55 560.64-22.3L560.64-22.3Q560.64-21.45 559.84-21.08 559.04-20.7 558.09-20.6L558.09-20.6 551.74-14.4 559.24-3.15Q559.54-2.8 560.22-2.6 560.89-2.4 561.57-2.23 562.24-2.05 562.77-1.83 563.29-1.6 563.29-1.1L563.29-1.1Q563.29-0.85 562.89-0.43 562.49 0 561.59 0L561.59 0 553.49 0Q552.89 0 552.72-0.35 552.54-0.7 552.54-1L552.54-1Q552.54-1.45 553.14-1.65L553.14-1.65 554.64-2.3 548.84-11.6 545.09-7.85 545.09-3.7Q545.09-2.95 545.62-2.68 546.14-2.4 546.79-2.25 547.44-2.1 547.97-1.9 548.49-1.7 548.49-1.1L548.49-1.1Q548.49 0 546.79 0L546.79 0 539.14 0Q538.54 0 538.37-0.35 538.19-0.7 538.19-1Z" opacity="1" transform="matrix(1,0,0,1,0,0)" fill="#556970" class="wordmark-text-0" data-fill-palette-color="primary" id="text-0"></path></svg></g></svg></g><g transform="matrix(1,0,0,1,3.5,29.324505256639743)"><svg viewBox="0 0 309.416 12.712925136975453" height="12.712925136975453" width="309.416"><g transform="matrix(1,0,0,1,0,0)"><svg width="309.416" viewBox="-1.5499999999999998 -41.35 1381.02 57.650000000000006" height="12.712925136975453" data-palette-color="#556970"><path d="M18.23 0.6Q11 0.6 6.73-4.45 2.45-9.5 2.45-17.23 2.45-24.95 7.3-30.33 12.15-35.7 19.8-35.7L19.8-35.7Q24.75-35.7 28.3-33.25L28.3-33.25Q35.2-28.5 35.2-18.4L35.2-18.4Q35.2-10.15 30.33-4.78 25.45 0.6 18.23 0.6ZM29.55-17.05L29.55-17.05Q29.55-23.45 27.15-27.5L27.15-27.5Q24.5-32.05 18.25-32.05L18.25-32.05Q13.85-32.05 11.35-30.5L11.35-30.5Q9.9-28.7 9-25.43 8.1-22.15 8.1-18.07 8.1-14 9.15-10.73 10.2-7.45 12.93-5.2 15.65-2.95 19.63-2.95 23.6-2.95 26.2-4.6L26.2-4.6Q29.55-8.35 29.55-17.05ZM64.94-24.6L64.94-24.6Q68.54-24.6 70.52-22.3 72.49-20 72.49-15.7L72.49-15.7 72.49-8.5Q72.49-3.75 73.99-0.35L73.99-0.35 73.99 0 66.94 0 66.94-0.35Q67.79-2.85 67.79-7L67.79-7 67.79-14.65Q67.79-17.55 66.92-19.03 66.04-20.5 63.39-20.5 60.74-20.5 56.59-17.95L56.59-17.95 56.59-8.5Q56.59-3.65 58.04-0.35L58.04-0.35 58.04 0 51.04 0 51.04-0.35Q51.89-2.85 51.89-7L51.89-7 51.89-15.5Q51.89-17.65 51.02-19.73 50.14-21.8 48.99-22.5L48.99-22.5 48.94-23.1 55.49-24.65 55.79-24.15Q56.19-22.3 56.39-20.4L56.39-20.4Q58.24-21.85 59.27-22.55 60.29-23.25 61.89-23.93 63.49-24.6 64.94-24.6ZM95.98-0.6L95.98 0 89.53 0 89.53-0.6Q90.38-3.1 90.38-8.5L90.38-8.5 90.38-29.35Q90.38-33.35 88.08-35.55L88.08-35.55 88.08-36.15 94.93-37.35 95.23-36.85Q95.08-35.4 95.08-27.25L95.08-27.25 95.13-8.5Q95.13-3.1 95.98-0.6L95.98-0.6ZM112.47-6.95L112.47-6.95 112.47-16.65Q112.47-21.1 109.97-22.85L109.97-22.85 109.97-23.45 117.02-24.65 117.32-24.15Q117.17-22.7 117.17-20L117.17-20 117.17-8.2Q117.17-3.2 118.42-0.35L118.42-0.35 118.42 0 111.67 0 111.67-0.35Q112.47-2.7 112.47-6.95ZM116.67-35.4L116.67-35.4Q117.37-34.8 117.37-32.5L117.37-32.5Q117.37-31.95 117.32-31.5L117.32-31.5 116.92-31.15Q114.92-30.6 112.17-30.35L112.17-30.35 111.72-30.55Q110.97-31.85 110.97-34L110.97-34Q110.97-34.25 110.97-34.5L110.97-34.5 111.37-34.85Q113.77-35.65 115.97-35.65L115.97-35.65Q116.22-35.65 116.67-35.4ZM148.16-24.6L148.16-24.6Q151.76-24.6 153.74-22.3 155.71-20 155.71-15.7L155.71-15.7 155.71-8.5Q155.71-3.75 157.21-0.35L157.21-0.35 157.21 0 150.16 0 150.16-0.35Q151.01-2.85 151.01-7L151.01-7 151.01-14.65Q151.01-17.55 150.14-19.03 149.26-20.5 146.61-20.5 143.96-20.5 139.81-17.95L139.81-17.95 139.81-8.5Q139.81-3.65 141.26-0.35L141.26-0.35 141.26 0 134.26 0 134.26-0.35Q135.11-2.85 135.11-7L135.11-7 135.11-15.5Q135.11-17.65 134.24-19.73 133.36-21.8 132.21-22.5L132.21-22.5 132.16-23.1 138.71-24.65 139.01-24.15Q139.41-22.3 139.61-20.4L139.61-20.4Q141.46-21.85 142.49-22.55 143.51-23.25 145.11-23.93 146.71-24.6 148.16-24.6ZM182.15 0.55L182.15 0.55Q176.9 0.55 173.95-2.7 171-5.95 171-11.28 171-16.6 174.3-20.6 177.6-24.6 182.5-24.6L182.5-24.6Q191.45-24.6 191.45-13.55L191.45-13.55 189.6-11.75 176.3-11.75Q176.3-7.55 178.1-5.45 179.9-3.35 182.95-3.35L182.95-3.35Q184.15-3.35 186.35-4.08 188.55-4.8 190.25-5.8L190.25-5.8 191.5-3.9Q190.55-2.95 187.38-1.2 184.2 0.55 182.15 0.55ZM181.6-22.1L181.6-22.1Q179.5-22.1 178.35-21.15L178.35-21.15Q177.4-19.85 176.85-17.85 176.3-15.85 176.3-14.35L176.3-14.35 186.55-14.75Q186.55-22.1 181.6-22.1ZM211.9-23.95L216-35.8 220.4-36.7 220.4-36.4Q216.95-29.6 207.1-2.05L207.1-2.05Q206.75-1.05 206.05 1.15 205.35 3.35 204.95 4.55L204.95 4.55 200.05 5.9 200.05 5.6Q201.55 2.65 205.87-8.3 210.2-19.25 211.9-23.95L211.9-23.95ZM235.74-18.75L235.74-18.75Q235.74-11.55 239.21-7.55 242.69-3.55 247.84-3.55L247.84-3.55Q251.59-3.55 257.79-6.95L257.79-6.95 259.14-4.9Q256.84-3.2 255.56-2.45 254.29-1.7 252.69-0.9L252.69-0.9Q249.44 0.65 245.74 0.65L245.74 0.65Q239.24 0.65 234.66-4.2 230.09-9.05 230.09-17.2 230.09-25.35 235.39-30.48 240.69-35.6 248.54-35.6L248.54-35.6Q253.79-35.6 258.39-33.2L258.39-33.2Q257.79-30.05 256.29-27.9L256.29-27.9Q251.14-32.05 245.14-32.05L245.14-32.05Q243.34-32.05 241.64-31.7L241.64-31.7Q239.09-29.8 237.41-26.55 235.74-23.3 235.74-18.75ZM282.43 0.6Q277.18 0.6 274.13-2.73 271.08-6.05 271.08-11.43 271.08-16.8 274.63-20.7 278.18-24.6 283.55-24.6 288.93-24.6 291.85-21.35 294.78-18.1 294.78-12.65 294.78-7.2 291.23-3.3 287.68 0.6 282.43 0.6ZM289.48-11.4L289.48-11.4Q289.48-16.35 287.93-19.05 286.38-21.75 282.43-21.75L282.43-21.75Q279.88-21.75 278.43-20.65L278.43-20.65Q277.53-19.5 276.95-17.15 276.38-14.8 276.38-12.65L276.38-12.65Q276.38-2.2 283.78-2.2L283.78-2.2Q286.08-2.2 287.53-3.25L287.53-3.25Q288.48-4.4 288.98-6.8 289.48-9.2 289.48-11.4ZM324.27-24.6L324.27-24.6Q327.87-24.6 329.84-22.3 331.82-20 331.82-15.7L331.82-15.7 331.82-8.5Q331.82-3.75 333.32-0.35L333.32-0.35 333.32 0 326.27 0 326.27-0.35Q327.12-2.85 327.12-7L327.12-7 327.12-14.65Q327.12-17.55 326.24-19.03 325.37-20.5 322.72-20.5 320.07-20.5 315.92-17.95L315.92-17.95 315.92-8.5Q315.92-3.65 317.37-0.35L317.37-0.35 317.37 0 310.37 0 310.37-0.35Q311.22-2.85 311.22-7L311.22-7 311.22-15.5Q311.22-17.65 310.34-19.73 309.47-21.8 308.32-22.5L308.32-22.5 308.27-23.1 314.82-24.65 315.12-24.15Q315.52-22.3 315.72-20.4L315.72-20.4Q317.57-21.85 318.59-22.55 319.62-23.25 321.22-23.93 322.82-24.6 324.27-24.6ZM351.41-24.4L351.41-23.8Q351.41-22.35 353.41-16.25L353.41-16.25 357.16-4.7 361.36-17.35Q362.41-20.65 362.41-23.4L362.41-23.4 362.41-24 367.66-24 367.66-23.4Q366.31-22.15 365.06-18.55L365.06-18.55 359.41-2.2 358.71 0.35 354.06 0.55 353.21-2.3 347.26-18.75Q345.86-22.3 344.61-23.15L344.61-23.15 344.61-23.75 351.41-24.4ZM389.8 0.55L389.8 0.55Q384.55 0.55 381.6-2.7 378.65-5.95 378.65-11.28 378.65-16.6 381.95-20.6 385.25-24.6 390.15-24.6L390.15-24.6Q399.1-24.6 399.1-13.55L399.1-13.55 397.25-11.75 383.95-11.75Q383.95-7.55 385.75-5.45 387.55-3.35 390.6-3.35L390.6-3.35Q391.8-3.35 394-4.08 396.2-4.8 397.9-5.8L397.9-5.8 399.15-3.9Q398.2-2.95 395.02-1.2 391.85 0.55 389.8 0.55ZM389.25-22.1L389.25-22.1Q387.15-22.1 386-21.15L386-21.15Q385.05-19.85 384.5-17.85 383.95-15.85 383.95-14.35L383.95-14.35 394.2-14.75Q394.2-22.1 389.25-22.1ZM428.44-24.6L428.44-24.6Q432.04-24.6 434.02-22.3 435.99-20 435.99-15.7L435.99-15.7 435.99-8.5Q435.99-3.75 437.49-0.35L437.49-0.35 437.49 0 430.44 0 430.44-0.35Q431.29-2.85 431.29-7L431.29-7 431.29-14.65Q431.29-17.55 430.42-19.03 429.54-20.5 426.89-20.5 424.24-20.5 420.09-17.95L420.09-17.95 420.09-8.5Q420.09-3.65 421.54-0.35L421.54-0.35 421.54 0 414.54 0 414.54-0.35Q415.39-2.85 415.39-7L415.39-7 415.39-15.5Q415.39-17.65 414.52-19.73 413.64-21.8 412.49-22.5L412.49-22.5 412.44-23.1 418.99-24.65 419.29-24.15Q419.69-22.3 419.89-20.4L419.89-20.4Q421.74-21.85 422.77-22.55 423.79-23.25 425.39-23.93 426.99-24.6 428.44-24.6ZM459.18-21.2L459.18-5.6Q459.18-2.95 460.78-2.95L460.78-2.95Q462.13-2.95 465.33-4.55L465.33-4.55 466.38-2.8Q464.78-1.7 462.38-0.58 459.98 0.55 457.98 0.55 455.98 0.55 455.23-0.7 454.48-1.95 454.48-4.3L454.48-4.3 454.48-21.15 449.98-20.9 451.18-24.15Q452.08-24.05 454.38-23.95L454.38-23.95Q454.28-26.45 454.08-28.45L454.08-28.45 459.18-29.75 459.18-24Q461.88-24.1 466.53-24.6L466.53-24.6 465.13-20.7Q462.43-21.1 459.18-21.2L459.18-21.2ZM481.22-6.95L481.22-6.95 481.22-16.65Q481.22-21.1 478.72-22.85L478.72-22.85 478.72-23.45 485.77-24.65 486.07-24.15Q485.92-22.7 485.92-20L485.92-20 485.92-8.2Q485.92-3.2 487.17-0.35L487.17-0.35 487.17 0 480.42 0 480.42-0.35Q481.22-2.7 481.22-6.95ZM485.42-35.4L485.42-35.4Q486.12-34.8 486.12-32.5L486.12-32.5Q486.12-31.95 486.07-31.5L486.07-31.5 485.67-31.15Q483.67-30.6 480.92-30.35L480.92-30.35 480.47-30.55Q479.72-31.85 479.72-34L479.72-34Q479.72-34.25 479.72-34.5L479.72-34.5 480.12-34.85Q482.52-35.65 484.72-35.65L484.72-35.65Q484.97-35.65 485.42-35.4ZM512.01 0.6Q506.76 0.6 503.71-2.73 500.66-6.05 500.66-11.43 500.66-16.8 504.21-20.7 507.76-24.6 513.14-24.6 518.51-24.6 521.44-21.35 524.36-18.1 524.36-12.65 524.36-7.2 520.81-3.3 517.26 0.6 512.01 0.6ZM519.06-11.4L519.06-11.4Q519.06-16.35 517.51-19.05 515.96-21.75 512.01-21.75L512.01-21.75Q509.46-21.75 508.01-20.65L508.01-20.65Q507.11-19.5 506.54-17.15 505.96-14.8 505.96-12.65L505.96-12.65Q505.96-2.2 513.36-2.2L513.36-2.2Q515.66-2.2 517.11-3.25L517.11-3.25Q518.06-4.4 518.56-6.8 519.06-9.2 519.06-11.4ZM553.85-24.6L553.85-24.6Q557.45-24.6 559.43-22.3 561.4-20 561.4-15.7L561.4-15.7 561.4-8.5Q561.4-3.75 562.9-0.35L562.9-0.35 562.9 0 555.85 0 555.85-0.35Q556.7-2.85 556.7-7L556.7-7 556.7-14.65Q556.7-17.55 555.83-19.03 554.95-20.5 552.3-20.5 549.65-20.5 545.5-17.95L545.5-17.95 545.5-8.5Q545.5-3.65 546.95-0.35L546.95-0.35 546.95 0 539.95 0 539.95-0.35Q540.8-2.85 540.8-7L540.8-7 540.8-15.5Q540.8-17.65 539.93-19.73 539.05-21.8 537.9-22.5L537.9-22.5 537.85-23.1 544.4-24.65 544.7-24.15Q545.1-22.3 545.3-20.4L545.3-20.4Q547.15-21.85 548.18-22.55 549.2-23.25 550.8-23.93 552.4-24.6 553.85-24.6ZM590.99-5.3L590.99-10Q588.94-10.75 586.27-10.75 583.59-10.75 582.39-9.9L582.39-9.9Q581.64-8.75 581.64-6.83 581.64-4.9 582.69-3.8 583.74-2.7 585.32-2.7 586.89-2.7 588.54-3.53 590.19-4.35 590.99-5.3L590.99-5.3ZM591.79-2.8L591.79-2.8Q588.74 0.55 584.92 0.55 581.09 0.55 578.92-1.1 576.74-2.75 576.74-6.43 576.74-10.1 579.32-11.7 581.89-13.3 586.59-13.3L586.59-13.3 590.99-13.15 590.99-16Q590.99-18.65 589.69-20.3 588.39-21.95 585.74-21.95L585.74-21.95Q583.79-21.9 579.49-18.2L579.49-18.2Q578.04-20.05 577.44-23L577.44-23Q582.39-24.6 586.54-24.6 590.69-24.6 593.19-22.45 595.69-20.3 595.69-16.35L595.69-16.35 595.69-7.95Q595.74-5.7 596.42-3.78 597.09-1.85 598.19-1.1L598.19-1.1 598.29-0.6 592.94 0.7Q592.29-0.9 591.79-2.8ZM618.44-0.6L618.44 0 611.99 0 611.99-0.6Q612.84-3.1 612.84-8.5L612.84-8.5 612.84-29.35Q612.84-33.35 610.54-35.55L610.54-35.55 610.54-36.15 617.39-37.35 617.69-36.85Q617.54-35.4 617.54-27.25L617.54-27.25 617.59-8.5Q617.59-3.1 618.44-0.6L618.44-0.6ZM668.87-12.2Q666.87-12.25 663.22-12.25 659.57-12.25 657.67-12.2L657.67-12.2Q656.27-6.6 655.94-4.78 655.62-2.95 655.62-0.85L655.62-0.85 655.62 0 648.82 0 648.82-0.5Q651.07-2.25 654.84-14.38 658.62-26.5 659.74-30.25 660.87-34 660.97-35.05L660.97-35.05 666.82-35.65Q666.82-33.9 669.97-24.73 673.12-15.55 675.04-10.55 676.97-5.55 678.02-3.6 679.07-1.65 680.37-0.5L680.37-0.5 680.37 0 671.97 0 671.97-0.85Q671.97-2.65 671.49-4.2 671.02-5.75 670.87-6.2L670.87-6.2 668.87-12.2ZM663.07-31.3L663.07-31.3Q662.07-28.65 658.27-15.05L658.27-15.05 668.02-15.05Q667.12-17.8 665.37-23.7 663.62-29.6 663.07-31.3ZM704.56-24.6L704.56-24.6Q706.11-24.6 706.86-24.25L706.86-24.25Q706.86-23.95 706.86-23.65L706.86-23.65Q706.86-20.7 705.96-18.3L705.96-18.3Q703.71-19.75 700.86-19.75L700.86-19.75Q699.31-19.75 697.76-19.2L697.76-19.2 697.76-8.5Q697.76-3.65 699.21-0.35L699.21-0.35 699.21 0 692.21 0 692.21-0.35Q693.06-2.85 693.06-7L693.06-7 693.06-15.5Q693.06-17.65 692.18-19.73 691.31-21.8 690.16-22.5L690.16-22.5 690.11-23.1 696.01-24.65Q696.81-23.3 697.31-21.5L697.31-21.5Q700.31-24.6 704.56-24.6ZM720.2-6.95L720.2-6.95 720.2-16.65Q720.2-21.1 717.7-22.85L717.7-22.85 717.7-23.45 724.75-24.65 725.05-24.15Q724.9-22.7 724.9-20L724.9-20 724.9-8.2Q724.9-3.2 726.15-0.35L726.15-0.35 726.15 0 719.4 0 719.4-0.35Q720.2-2.7 720.2-6.95ZM724.4-35.4L724.4-35.4Q725.1-34.8 725.1-32.5L725.1-32.5Q725.1-31.95 725.05-31.5L725.05-31.5 724.65-31.15Q722.65-30.6 719.9-30.35L719.9-30.35 719.45-30.55Q718.7-31.85 718.7-34L718.7-34Q718.7-34.25 718.7-34.5L718.7-34.5 719.1-34.85Q721.5-35.65 723.7-35.65L723.7-35.65Q723.95-35.65 724.4-35.4ZM747.54-21.2L747.54-5.6Q747.54-2.95 749.14-2.95L749.14-2.95Q750.49-2.95 753.69-4.55L753.69-4.55 754.74-2.8Q753.14-1.7 750.74-0.58 748.34 0.55 746.34 0.55 744.34 0.55 743.59-0.7 742.84-1.95 742.84-4.3L742.84-4.3 742.84-21.15 738.34-20.9 739.54-24.15Q740.44-24.05 742.74-23.95L742.74-23.95Q742.64-26.45 742.44-28.45L742.44-28.45 747.54-29.75 747.54-24Q750.24-24.1 754.89-24.6L754.89-24.6 753.49-20.7Q750.79-21.1 747.54-21.2L747.54-21.2ZM774.08-27.25L774.08-27.25 774.08-20.4Q775.98-21.85 777.01-22.55 778.03-23.25 779.66-23.93 781.28-24.6 782.73-24.6L782.73-24.6Q786.43-24.6 788.43-22.3 790.43-20 790.43-15.7L790.43-15.7 790.43-8.5Q790.43-3.75 791.93-0.35L791.93-0.35 791.93 0 784.88 0 784.88-0.35Q785.73-2.85 785.73-7L785.73-7 785.73-14.65Q785.73-17.55 784.86-19.03 783.98-20.5 781.21-20.5 778.43-20.5 774.23-17.95L774.23-17.95 774.23-8.5Q774.23-3.65 775.68-0.35L775.68-0.35 775.68 0 768.68 0 768.68-0.35Q769.53-2.85 769.53-7L769.53-7 769.53-29.35Q769.53-33.35 767.23-35.55L767.23-35.55 767.23-36.15 773.93-37.35 774.23-36.85Q774.08-35.4 774.08-27.25ZM828.12-16.05L828.12-16.05 828.12-7Q828.12-3 828.87-0.35L828.87-0.35 828.87 0 822.67 0 822.67-0.35Q823.42-3 823.42-7L823.42-7 823.42-15Q823.42-17.85 822.67-19.18 821.92-20.5 819.67-20.5 817.42-20.5 813.62-17.95L813.62-17.95 813.62-8.5Q813.62-3.65 815.07-0.35L815.07-0.35 815.07 0 808.07 0 808.07-0.35Q808.92-2.85 808.92-7L808.92-7 808.92-15.5Q808.92-17.65 808.05-19.73 807.17-21.8 806.02-22.5L806.02-22.5 805.97-23.1 812.52-24.65 812.82-24.15Q813.22-22.3 813.42-20.4L813.42-20.4Q815.22-21.95 816-22.58 816.77-23.2 818.2-23.9 819.62-24.6 820.87-24.6L820.87-24.6Q826.02-24.6 827.52-20.15L827.52-20.15Q832.67-24.6 835.57-24.6L835.57-24.6Q839.07-24.6 841.02-22.3 842.97-20 842.97-15.7L842.97-15.7 842.97-8.5Q842.97-3.75 844.47-0.35L844.47-0.35 844.47 0 837.42 0 837.42-0.35Q838.27-2.85 838.27-7L838.27-7 838.27-14.65Q838.27-20.5 834.62-20.5L834.62-20.5Q831.57-20.5 828.02-17.9L828.02-17.9Q828.12-16.7 828.12-16.05ZM869.41 0.55L869.41 0.55Q864.16 0.55 861.21-2.7 858.26-5.95 858.26-11.28 858.26-16.6 861.56-20.6 864.86-24.6 869.76-24.6L869.76-24.6Q878.71-24.6 878.71-13.55L878.71-13.55 876.86-11.75 863.56-11.75Q863.56-7.55 865.36-5.45 867.16-3.35 870.21-3.35L870.21-3.35Q871.41-3.35 873.61-4.08 875.81-4.8 877.51-5.8L877.51-5.8 878.76-3.9Q877.81-2.95 874.64-1.2 871.46 0.55 869.41 0.55ZM868.86-22.1L868.86-22.1Q866.76-22.1 865.61-21.15L865.61-21.15Q864.66-19.85 864.11-17.85 863.56-15.85 863.56-14.35L863.56-14.35 873.81-14.75Q873.81-22.1 868.86-22.1ZM899.7-21.2L899.7-5.6Q899.7-2.95 901.3-2.95L901.3-2.95Q902.65-2.95 905.85-4.55L905.85-4.55 906.9-2.8Q905.3-1.7 902.9-0.58 900.5 0.55 898.5 0.55 896.5 0.55 895.75-0.7 895-1.95 895-4.3L895-4.3 895-21.15 890.5-20.9 891.7-24.15Q892.6-24.05 894.9-23.95L894.9-23.95Q894.8-26.45 894.6-28.45L894.6-28.45 899.7-29.75 899.7-24Q902.4-24.1 907.05-24.6L907.05-24.6 905.65-20.7Q902.95-21.1 899.7-21.2L899.7-21.2ZM921.74-6.95L921.74-6.95 921.74-16.65Q921.74-21.1 919.24-22.85L919.24-22.85 919.24-23.45 926.29-24.65 926.59-24.15Q926.44-22.7 926.44-20L926.44-20 926.44-8.2Q926.44-3.2 927.69-0.35L927.69-0.35 927.69 0 920.94 0 920.94-0.35Q921.74-2.7 921.74-6.95ZM925.94-35.4L925.94-35.4Q926.64-34.8 926.64-32.5L926.64-32.5Q926.64-31.95 926.59-31.5L926.59-31.5 926.19-31.15Q924.19-30.6 921.44-30.35L921.44-30.35 920.99-30.55Q920.24-31.85 920.24-34L920.24-34Q920.24-34.25 920.24-34.5L920.24-34.5 920.64-34.85Q923.04-35.65 925.24-35.65L925.24-35.65Q925.49-35.65 925.94-35.4ZM950.03-21.2Q948.38-20.2 947.43-17.73 946.48-15.25 946.48-11.83 946.48-8.4 947.86-5.85 949.23-3.3 952.23-3.3L952.23-3.3Q954.23-3.3 956.88-4.23 959.53-5.15 960.38-5.8L960.38-5.8 961.63-3.85Q955.23 0.55 951.93 0.55L951.93 0.55Q946.93 0.55 944.06-2.85 941.18-6.25 941.18-11.75 941.18-17.25 944.91-20.95 948.63-24.65 953.41-24.65 958.18-24.65 961.33-22.5L961.33-22.5Q959.38-19.4 958.78-18.75L958.78-18.75Q955.38-21.35 952.28-21.35L952.28-21.35Q951.13-21.35 950.03-21.2L950.03-21.2ZM1000.52-18.75L1000.52-18.75Q1000.52-11.55 1003.99-7.55 1007.47-3.55 1012.62-3.55L1012.62-3.55Q1016.37-3.55 1022.57-6.95L1022.57-6.95 1023.92-4.9Q1021.62-3.2 1020.34-2.45 1019.07-1.7 1017.47-0.9L1017.47-0.9Q1014.22 0.65 1010.52 0.65L1010.52 0.65Q1004.02 0.65 999.44-4.2 994.87-9.05 994.87-17.2 994.87-25.35 1000.17-30.48 1005.47-35.6 1013.32-35.6L1013.32-35.6Q1018.57-35.6 1023.17-33.2L1023.17-33.2Q1022.57-30.05 1021.07-27.9L1021.07-27.9Q1015.92-32.05 1009.92-32.05L1009.92-32.05Q1008.12-32.05 1006.42-31.7L1006.42-31.7Q1003.87-29.8 1002.19-26.55 1000.52-23.3 1000.52-18.75ZM1047.21 0.6Q1041.96 0.6 1038.91-2.73 1035.86-6.05 1035.86-11.43 1035.86-16.8 1039.41-20.7 1042.96-24.6 1048.33-24.6 1053.71-24.6 1056.63-21.35 1059.56-18.1 1059.56-12.65 1059.56-7.2 1056.01-3.3 1052.46 0.6 1047.21 0.6ZM1054.26-11.4L1054.26-11.4Q1054.26-16.35 1052.71-19.05 1051.16-21.75 1047.21-21.75L1047.21-21.75Q1044.66-21.75 1043.21-20.65L1043.21-20.65Q1042.31-19.5 1041.73-17.15 1041.16-14.8 1041.16-12.65L1041.16-12.65Q1041.16-2.2 1048.56-2.2L1048.56-2.2Q1050.86-2.2 1052.31-3.25L1052.31-3.25Q1053.26-4.4 1053.76-6.8 1054.26-9.2 1054.26-11.4ZM1095.2-16.05L1095.2-16.05 1095.2-7Q1095.2-3 1095.95-0.35L1095.95-0.35 1095.95 0 1089.75 0 1089.75-0.35Q1090.5-3 1090.5-7L1090.5-7 1090.5-15Q1090.5-17.85 1089.75-19.18 1089-20.5 1086.75-20.5 1084.5-20.5 1080.7-17.95L1080.7-17.95 1080.7-8.5Q1080.7-3.65 1082.15-0.35L1082.15-0.35 1082.15 0 1075.15 0 1075.15-0.35Q1076-2.85 1076-7L1076-7 1076-15.5Q1076-17.65 1075.12-19.73 1074.25-21.8 1073.1-22.5L1073.1-22.5 1073.05-23.1 1079.6-24.65 1079.9-24.15Q1080.3-22.3 1080.5-20.4L1080.5-20.4Q1082.3-21.95 1083.07-22.58 1083.85-23.2 1085.27-23.9 1086.7-24.6 1087.95-24.6L1087.95-24.6Q1093.1-24.6 1094.6-20.15L1094.6-20.15Q1099.75-24.6 1102.65-24.6L1102.65-24.6Q1106.15-24.6 1108.1-22.3 1110.05-20 1110.05-15.7L1110.05-15.7 1110.05-8.5Q1110.05-3.75 1111.55-0.35L1111.55-0.35 1111.55 0 1104.5 0 1104.5-0.35Q1105.35-2.85 1105.35-7L1105.35-7 1105.35-14.65Q1105.35-20.5 1101.7-20.5L1101.7-20.5Q1098.65-20.5 1095.1-17.9L1095.1-17.9Q1095.2-16.7 1095.2-16.05ZM1139.54-2.65L1139.54-2.65Q1141.79-2.65 1142.84-3.25L1142.84-3.25Q1143.64-4.2 1144.29-7.05 1144.94-9.9 1144.94-12.55L1144.94-12.55Q1144.94-20.9 1139.89-20.9L1139.89-20.9Q1136.69-20.9 1132.89-18.25L1132.89-18.25 1132.89-4.75Q1136.04-2.65 1139.54-2.65ZM1128.19 5L1128.19 5 1128.19-15.7Q1128.19-17.9 1127.49-19.83 1126.79-21.75 1125.64-22.45L1125.64-22.45 1125.59-23.05 1132.44-24.65 1132.74-24.15Q1132.64-23 1132.64-20.9L1132.64-20.9Q1136.79-24.6 1140.91-24.6 1145.04-24.6 1147.66-21.35 1150.29-18.1 1150.29-13.45L1150.29-13.45Q1150.29-7.65 1146.84-3.53 1143.39 0.6 1138.99 0.6L1138.99 0.6Q1136.09 0.6 1132.89-0.5L1132.89-0.5 1132.89 2.9Q1132.99 8.9 1134.94 11.3L1134.94 11.3 1134.94 11.55 1128.04 12.3Q1128.19 10.3 1128.19 5ZM1173.18 0.55L1173.18 0.55Q1168.98 0.55 1167.3-1.63 1165.63-3.8 1165.63-8.35L1165.63-8.35 1165.63-15.5Q1165.63-20.25 1164.13-23.65L1164.13-23.65 1164.13-24 1171.08-24 1171.08-23.65Q1170.33-21 1170.33-17L1170.33-17 1170.33-9.15Q1170.33-6.15 1171.08-4.85 1171.83-3.55 1174.73-3.55 1177.63-3.55 1181.53-6.3L1181.53-6.3 1181.53-15.5Q1181.53-20.35 1180.08-23.65L1180.08-23.65 1180.08-24 1186.98-24 1186.98-23.65Q1186.23-21 1186.23-17L1186.23-17 1186.23-8.55Q1186.23-6.35 1186.98-4.23 1187.73-2.1 1188.73-1.4L1188.73-1.4 1188.78-0.8 1182.93 0.6Q1182.08-1.7 1181.73-3.8L1181.73-3.8Q1179.28-1.7 1177.28-0.58 1175.28 0.55 1173.18 0.55ZM1210.42-21.2L1210.42-5.6Q1210.42-2.95 1212.02-2.95L1212.02-2.95Q1213.37-2.95 1216.57-4.55L1216.57-4.55 1217.62-2.8Q1216.02-1.7 1213.62-0.58 1211.22 0.55 1209.22 0.55 1207.22 0.55 1206.47-0.7 1205.72-1.95 1205.72-4.3L1205.72-4.3 1205.72-21.15 1201.22-20.9 1202.42-24.15Q1203.32-24.05 1205.62-23.95L1205.62-23.95Q1205.52-26.45 1205.32-28.45L1205.32-28.45 1210.42-29.75 1210.42-24Q1213.12-24.1 1217.77-24.6L1217.77-24.6 1216.37-20.7Q1213.67-21.1 1210.42-21.2L1210.42-21.2ZM1244.11-5.3L1244.11-10Q1242.06-10.75 1239.39-10.75 1236.71-10.75 1235.51-9.9L1235.51-9.9Q1234.76-8.75 1234.76-6.83 1234.76-4.9 1235.81-3.8 1236.86-2.7 1238.44-2.7 1240.01-2.7 1241.66-3.53 1243.31-4.35 1244.11-5.3L1244.11-5.3ZM1244.91-2.8L1244.91-2.8Q1241.86 0.55 1238.04 0.55 1234.21 0.55 1232.04-1.1 1229.86-2.75 1229.86-6.43 1229.86-10.1 1232.44-11.7 1235.01-13.3 1239.71-13.3L1239.71-13.3 1244.11-13.15 1244.11-16Q1244.11-18.65 1242.81-20.3 1241.51-21.95 1238.86-21.95L1238.86-21.95Q1236.91-21.9 1232.61-18.2L1232.61-18.2Q1231.16-20.05 1230.56-23L1230.56-23Q1235.51-24.6 1239.66-24.6 1243.81-24.6 1246.31-22.45 1248.81-20.3 1248.81-16.35L1248.81-16.35 1248.81-7.95Q1248.86-5.7 1249.54-3.78 1250.21-1.85 1251.31-1.1L1251.31-1.1 1251.41-0.6 1246.06 0.7Q1245.41-0.9 1244.91-2.8ZM1271.75-21.2L1271.75-5.6Q1271.75-2.95 1273.35-2.95L1273.35-2.95Q1274.7-2.95 1277.9-4.55L1277.9-4.55 1278.95-2.8Q1277.35-1.7 1274.95-0.58 1272.55 0.55 1270.55 0.55 1268.55 0.55 1267.8-0.7 1267.05-1.95 1267.05-4.3L1267.05-4.3 1267.05-21.15 1262.55-20.9 1263.75-24.15Q1264.65-24.05 1266.95-23.95L1266.95-23.95Q1266.85-26.45 1266.65-28.45L1266.65-28.45 1271.75-29.75 1271.75-24Q1274.45-24.1 1279.1-24.6L1279.1-24.6 1277.7-20.7Q1275-21.1 1271.75-21.2L1271.75-21.2ZM1293.79-6.95L1293.79-6.95 1293.79-16.65Q1293.79-21.1 1291.29-22.85L1291.29-22.85 1291.29-23.45 1298.34-24.65 1298.64-24.15Q1298.49-22.7 1298.49-20L1298.49-20 1298.49-8.2Q1298.49-3.2 1299.74-0.35L1299.74-0.35 1299.74 0 1292.99 0 1292.99-0.35Q1293.79-2.7 1293.79-6.95ZM1297.99-35.4L1297.99-35.4Q1298.69-34.8 1298.69-32.5L1298.69-32.5Q1298.69-31.95 1298.64-31.5L1298.64-31.5 1298.24-31.15Q1296.24-30.6 1293.49-30.35L1293.49-30.35 1293.04-30.55Q1292.29-31.85 1292.29-34L1292.29-34Q1292.29-34.25 1292.29-34.5L1292.29-34.5 1292.69-34.85Q1295.09-35.65 1297.29-35.65L1297.29-35.65Q1297.54-35.65 1297.99-35.4ZM1324.58 0.6Q1319.33 0.6 1316.28-2.73 1313.23-6.05 1313.23-11.43 1313.23-16.8 1316.78-20.7 1320.33-24.6 1325.71-24.6 1331.08-24.6 1334.01-21.35 1336.93-18.1 1336.93-12.65 1336.93-7.2 1333.38-3.3 1329.83 0.6 1324.58 0.6ZM1331.63-11.4L1331.63-11.4Q1331.63-16.35 1330.08-19.05 1328.53-21.75 1324.58-21.75L1324.58-21.75Q1322.03-21.75 1320.58-20.65L1320.58-20.65Q1319.68-19.5 1319.11-17.15 1318.53-14.8 1318.53-12.65L1318.53-12.65Q1318.53-2.2 1325.93-2.2L1325.93-2.2Q1328.23-2.2 1329.68-3.25L1329.68-3.25Q1330.63-4.4 1331.13-6.8 1331.63-9.2 1331.63-11.4ZM1366.42-24.6L1366.42-24.6Q1370.02-24.6 1372-22.3 1373.97-20 1373.97-15.7L1373.97-15.7 1373.97-8.5Q1373.97-3.75 1375.47-0.35L1375.47-0.35 1375.47 0 1368.42 0 1368.42-0.35Q1369.27-2.85 1369.27-7L1369.27-7 1369.27-14.65Q1369.27-17.55 1368.4-19.03 1367.52-20.5 1364.87-20.5 1362.22-20.5 1358.07-17.95L1358.07-17.95 1358.07-8.5Q1358.07-3.65 1359.52-0.35L1359.52-0.35 1359.52 0 1352.52 0 1352.52-0.35Q1353.37-2.85 1353.37-7L1353.37-7 1353.37-15.5Q1353.37-17.65 1352.5-19.73 1351.62-21.8 1350.47-22.5L1350.47-22.5 1350.42-23.1 1356.97-24.65 1357.27-24.15Q1357.67-22.3 1357.87-20.4L1357.87-20.4Q1359.72-21.85 1360.75-22.55 1361.77-23.25 1363.37-23.93 1364.97-24.6 1366.42-24.6Z" opacity="1" transform="matrix(1,0,0,1,0,0)" fill="#556970" class="slogan-text-1" data-fill-palette-color="secondary" id="text-1"></path></svg></g></svg></g></svg></g></svg></g></svg></g></svg></g></svg></g><g mask="url(#f95b1936-0cb2-4859-9148-d6ba52d8859c)"><g transform="matrix(2.779006586170915, 0, 0, 2.779006586170915, 72.72185557508108, 1)"><svg xmlns="http://www.w3.org/2000/svg" xmlns:xlink="http://www.w3.org/1999/xlink" version="1.1" x="0" y="0" viewBox="5.005968823831084 5.883629261713388 89.98765605460771 88.23296829168424" enable-background="new 0 0 100 100" xml:space="preserve" height="88.23296829168424" width="89.98765605460771" class="icon-none" data-fill-palette-color="accent" id="none"><path fill-rule="evenodd" clip-rule="evenodd" d="M8.25 21.677C8.049 21.51 7.93 21.273 7.896 20.97A0.9 0.9 0 0 1 8.098 20.264 0.82 0.82 0 0 1 8.807 19.909 0.9 0.9 0 0 1 9.514 20.111L12.444 22.435 21.591 18.798 21.994 18.698 24.371 18.797 20.53 16.172 14.668 16.07A1.2 1.2 0 0 1 13.959 15.717 0.97 0.97 0 0 1 13.656 15.01C13.725 14.37 14.078 14.05 14.72 14.05L20.076 14.15 20.58 11.98C20.648 11.743 20.8 11.54 21.035 11.373 21.305 11.237 21.557 11.187 21.793 11.221 22.063 11.288 22.281 11.44 22.449 11.676 22.586 11.946 22.62 12.198 22.551 12.434L21.994 14.757 27.454 18.445 29.22 14.455 29.27 14.402 30.383 11.93A0.91 0.91 0 0 1 30.939 11.373 0.85 0.85 0 0 1 31.697 11.423C31.967 11.523 32.152 11.709 32.254 11.979 32.354 12.248 32.338 12.5 32.204 12.736L31.696 13.848 32.86 13.898C33.13 13.898 33.365 14 33.566 14.201 33.77 14.403 33.871 14.64 33.871 14.91S33.77 15.414 33.566 15.615C33.332 15.817 33.078 15.92 32.81 15.92L30.787 15.869 29.07 19.757V19.808L30.332 24.053 48.777 19.203 49.182 19.151 68.436 21.224 72.832 15.514 70.557 9.555C70.389 9.014 70.54 8.61 71.012 8.342L75.004 6.018C75.24 5.884 75.51 5.85 75.813 5.917 76.049 5.984 76.252 6.136 76.42 6.372 76.723 6.978 76.588 7.45 76.016 7.785L72.78 9.655 74.55 14.353 78.795 13.039V10.767C78.795 10.295 79.03 9.975 79.502 9.806L83.039 8.645C83.646 8.477 84.066 8.695 84.303 9.3 84.369 9.57 84.353 9.823 84.252 10.059A0.9 0.9 0 0 1 83.646 10.563L80.816 11.473V13.697L82.937 15.11C83.175 15.28 83.328 15.498 83.394 15.768 83.426 16.038 83.359 16.289 83.19 16.525A0.78 0.78 0 0 1 82.584 16.93 0.88 0.88 0 0 1 81.826 16.777L79.2 15.01 74.65 16.475 69.951 22.638 79.855 35.468 80.008 35.77 84.959 50.724 91.781 51.532 93.096 49.36C93.264 49.124 93.466 48.972 93.7 48.905 93.971 48.871 94.225 48.922 94.46 49.057 94.729 49.225 94.899 49.427 94.965 49.663A0.88 0.88 0 0 1 94.812 50.421L93.198 53.099 94.157 55.573C94.256 55.843 94.24 56.113 94.106 56.382A0.94 0.94 0 0 1 93.551 56.887L93.197 56.937C92.725 56.937 92.404 56.717 92.237 56.28L91.175 53.502 84.908 52.795 83.242 63.302 83.04 63.706 74.4 75.88 78.288 80.78 84.15 79.67 85.768 76.537C85.902 76.302 86.105 76.133 86.375 76.032S86.896 75.947 87.133 76.082 87.52 76.419 87.588 76.688A0.86 0.86 0 0 1 87.538 77.446L85.97 80.578 87.334 82.094C87.502 82.294 87.588 82.53 87.588 82.8 87.555 83.104 87.436 83.339 87.232 83.508 86.693 83.946 86.205 83.912 85.768 83.408L84.303 81.738 79.502 82.6 80.311 87.296 82.988 88.408C83.225 88.508 83.393 88.694 83.494 88.964S83.596 89.503 83.494 89.77L82.18 92.702C82.045 93.105 81.742 93.308 81.27 93.308L80.865 93.258A1.1 1.1 0 0 1 80.311 92.65 0.85 0.85 0 0 1 80.36 91.894L81.221 89.872 79.45 89.114 77.834 90.327C77.294 90.698 76.824 90.613 76.42 90.075A1 1 0 0 1 76.268 89.367C76.3 89.064 76.42 88.83 76.62 88.661L78.29 87.448 77.48 82.8 77.076 82.497 72.982 77.346 52.77 82.497 52.518 86.641 55.043 89.62 57.923 90.428A0.9 0.9 0 0 1 58.532 90.935 0.98 0.98 0 0 1 58.631 91.69 0.93 0.93 0 0 1 58.176 92.298C57.906 92.432 57.636 92.466 57.369 92.398L54.842 91.691 52.972 93.813A1.03 1.03 0 0 1 52.216 94.116 0.9 0.9 0 0 1 51.557 93.863C51.355 93.694 51.237 93.46 51.203 93.156 51.203 92.886 51.287 92.65 51.457 92.45L53.174 90.53 51.204 88.206 42.005 89.722 41.703 92.348A0.98 0.98 0 0 1 41.35 93.005C41.113 93.207 40.86 93.275 40.592 93.207A0.98 0.98 0 0 1 39.934 92.853C39.732 92.617 39.648 92.364 39.682 92.096L40.035 89.317 38.115 88.155C37.576 87.818 37.457 87.347 37.762 86.741A1.12 1.12 0 0 1 38.418 86.286C38.688 86.253 38.939 86.303 39.176 86.438L41.35 87.802 50.496 86.286 50.748 82.447 35.033 79.82A1.25 1.25 0 0 1 34.477 79.517L24.37 68 24.27 67.747 20.732 67.141 14.971 70.525 14.82 76.991 16.485 78.456C17.027 78.928 17.061 79.416 16.588 79.921 16.42 80.124 16.184 80.24 15.88 80.274A1.07 1.07 0 0 1 15.174 80.022L13.91 78.912 10.523 81.941C10.355 82.11 10.137 82.194 9.867 82.194 9.564 82.194 9.311 82.094 9.11 81.892 8.67 81.387 8.687 80.898 9.16 80.427L12.748 77.243 12.949 70.93 5.824 69.516C5.554 69.48 5.336 69.33 5.168 69.06A1.2 1.2 0 0 1 5.016 68.303 0.93 0.93 0 0 1 5.47 67.697 0.88 0.88 0 0 1 6.229 67.545L13.607 69.01 20.023 65.17C20.26 65.069 20.48 65.036 20.682 65.069L23.359 65.575 17.498 50.925A1.8 1.8 0 0 1 17.498 50.32L21.439 35.62 21.641 35.266 28.717 25.618 27.3 20.92 22.146 20.718 13.254 24.305 12.596 26.679C12.428 27.184 12.107 27.437 11.635 27.437L11.332 27.386A0.93 0.93 0 0 1 10.727 26.93 1.14 1.14 0 0 1 10.625 26.123L11.232 24.052zM48.322 32.084C48.154 31.982 47.953 31.966 47.717 32.034L38.773 33.648C38.57 33.684 38.367 33.801 38.166 34.003L32.051 41.58C31.916 41.75 31.85 41.984 31.85 42.288L32.709 54.007C32.709 54.345 32.842 54.597 33.111 54.765L41.955 60.826C42.09 60.962 42.275 61.028 42.512 61.028H42.664L54.034 59.11C54.302 59.042 54.52 58.907 54.69 58.705L61.158 49.26C61.326 49.057 61.377 48.787 61.311 48.45L58.582 36.934C58.514 36.63 58.328 36.394 58.025 36.226zM48.525 25.618H46.15C45.88 25.618 45.645 25.718 45.443 25.921 45.24 26.123 45.14 26.358 45.14 26.628S45.24 27.133 45.443 27.335A0.96 0.96 0 0 0 46.15 27.639H48.525C48.795 27.639 49.03 27.539 49.232 27.335 49.436 27.133 49.535 26.897 49.535 26.628S49.435 26.123 49.232 25.92 48.795 25.618 48.525 25.618M39.125 49.46L44.332 52.996 51.102 51.886 54.943 46.278 53.326 39.46 47.564 36.983 42.21 37.994 38.621 42.44zM68.435 69.818A0.97 0.97 0 0 0 68.134 69.111 0.98 0.98 0 0 0 67.423 68.808H63.788A0.98 0.98 0 0 0 63.078 69.11 0.973 0.973 0 0 0 63.078 70.525C63.281 70.728 63.518 70.83 63.788 70.83H67.423A0.97 0.97 0 0 0 68.133 70.525 0.97 0.97 0 0 0 68.436 69.818M68.032 63.504A0.97 0.97 0 0 0 67.727 62.797 0.97 0.97 0 0 0 67.02 62.493H60.299C60.029 62.493 59.795 62.595 59.592 62.797S59.289 63.234 59.289 63.504 59.39 64.009 59.592 64.212A0.97 0.97 0 0 0 60.299 64.515H67.019C67.29 64.515 67.526 64.415 67.728 64.212A0.97 0.97 0 0 0 68.03 63.504M69.547 41.024A0.97 0.97 0 0 0 68.84 40.722H65.857A0.97 0.97 0 0 0 65.15 41.024 0.97 0.97 0 0 0 64.848 41.732C64.848 42.405 65.184 42.742 65.858 42.742H68.84C69.514 42.742 69.85 42.405 69.85 41.732A0.98 0.98 0 0 0 69.547 41.024M76.318 51.835A0.97 0.97 0 0 0 77.025 51.532C77.23 51.33 77.328 51.095 77.328 50.825S77.228 50.32 77.025 50.117A0.97 0.97 0 0 0 76.318 49.814H67.375A0.97 0.97 0 0 0 66.666 50.117 0.977 0.977 0 0 0 66.666 51.532 0.98 0.98 0 0 0 67.375 51.835zM39.125 71.283C39.328 71.485 39.565 71.587 39.834 71.587H43.572C43.842 71.587 44.078 71.485 44.28 71.283S44.584 70.846 44.584 70.576 44.482 70.071 44.279 69.868A0.97 0.97 0 0 0 43.572 69.565H39.834A0.97 0.97 0 0 0 39.125 69.868 0.976 0.976 0 0 0 39.125 71.283M28.262 53.1H24.42C23.746 53.099 23.41 53.435 23.41 54.109 23.41 54.78 23.746 55.118 24.42 55.118H28.262C28.936 55.118 29.272 54.78 29.272 54.108A0.97 0.97 0 0 0 28.968 53.4 0.97 0.97 0 0 0 28.262 53.1M39.479 35.569L47.768 34.053 56.762 37.894 59.238 48.5 53.275 57.189 42.764 58.958 34.678 53.351 33.87 42.54z" fill="#aba944" data-fill-palette-color="accent"></path></svg></g></g></svg></g><defs></defs></svg><rect width="395.52" height="247.2" fill="none" stroke="none" visibility="hidden"></rect></g></svg></g></svg>